<?xml version="1.0" encoding="UTF-8"?>
<svg xmlns="http://www.w3.org/2000/svg" xmlns:xlink="http://www.w3.org/1999/xlink" width="32px" height="32px" viewBox="0 0 32 32" version="1.1">
<g id="surface1">
<path style=" stroke:none;fill-rule:nonzero;fill:rgb(100%,100%,100%);fill-opacity:1;" d="M 0.976562 0 L 31.011719 0 C 31.550781 0 31.988281 0.4375 31.988281 0.976562 L 31.988281 31.011719 C 31.988281 31.550781 31.550781 31.988281 31.011719 31.988281 L 0.976562 31.988281 C 0.4375 31.988281 0 31.550781 0 31.011719 L 0 0.976562 C 0 0.4375 0.4375 0 0.976562 0 Z M 0.976562 0 "/>
<path style=" stroke:none;fill-rule:nonzero;fill:rgb(94.901961%,43.137255%,34.901961%);fill-opacity:1;" d="M 19.804688 1.351562 C 19.769531 1.394531 19.691406 1.527344 19.632812 1.644531 C 19.492188 1.929688 19.484375 2.042969 19.574219 2.535156 C 19.644531 2.890625 19.648438 2.960938 19.648438 3.589844 C 19.648438 4.03125 19.636719 4.34375 19.613281 4.496094 C 19.484375 5.363281 19.265625 6.035156 18.898438 6.695312 C 18.625 7.199219 18.566406 7.382812 18.667969 7.4375 C 18.75 7.480469 18.820312 7.46875 19.113281 7.363281 C 19.269531 7.308594 19.507812 7.222656 19.648438 7.171875 C 20.460938 6.886719 21.511719 6.867188 22.519531 7.117188 C 22.914062 7.21875 23.265625 7.351562 23.675781 7.550781 C 24.382812 7.894531 24.84375 8.246094 25.417969 8.871094 C 25.613281 9.085938 25.824219 9.300781 25.878906 9.347656 C 25.976562 9.421875 25.988281 9.425781 26.023438 9.386719 C 26.09375 9.320312 26.097656 8.894531 26.03125 8.632812 C 25.980469 8.429688 25.980469 8.425781 25.707031 8.128906 C 24.609375 6.933594 21.078125 2.71875 20.300781 1.671875 C 19.976562 1.234375 19.925781 1.203125 19.804688 1.351562 Z M 20.160156 2.417969 C 20.195312 2.476562 20.367188 2.695312 20.539062 2.910156 C 20.710938 3.125 21.089844 3.609375 21.382812 3.984375 C 22.136719 4.972656 22.378906 5.28125 22.5625 5.5 C 22.777344 5.757812 22.789062 5.789062 22.730469 5.890625 C 22.644531 6.039062 22.40625 6.320312 22.335938 6.355469 C 22.238281 6.402344 22.203125 6.402344 22.152344 6.347656 C 22.101562 6.296875 20.121094 2.828125 20.121094 2.800781 C 20.121094 2.789062 20.074219 2.691406 20.015625 2.585938 C 19.933594 2.429688 19.917969 2.386719 19.941406 2.355469 C 20 2.285156 20.089844 2.308594 20.160156 2.417969 Z M 20.894531 5.0625 C 21.03125 5.199219 21.191406 5.609375 21.140625 5.707031 C 21.117188 5.75 21.085938 5.757812 20.898438 5.757812 C 20.671875 5.757812 20.4375 5.691406 20.339844 5.605469 C 20.265625 5.542969 20.300781 5.378906 20.417969 5.203125 C 20.585938 4.957031 20.734375 4.914062 20.894531 5.0625 Z M 20.894531 5.0625 "/>
<path style=" stroke:none;fill-rule:nonzero;fill:rgb(94.901961%,43.137255%,34.901961%);fill-opacity:1;" d="M 19.457031 7.792969 C 19.128906 7.851562 18.820312 7.960938 18.636719 8.085938 C 18.472656 8.195312 18.15625 8.519531 17.851562 8.890625 C 17.535156 9.277344 17.078125 9.886719 16.917969 10.136719 C 16.675781 10.511719 16.65625 10.539062 16.558594 10.601562 C 16.5 10.640625 16.414062 10.671875 16.328125 10.683594 C 16.113281 10.703125 16.101562 10.726562 16.183594 11.007812 C 16.21875 11.136719 16.3125 11.507812 16.390625 11.832031 C 16.558594 12.535156 16.574219 12.582031 16.621094 12.582031 C 16.640625 12.582031 16.785156 12.523438 16.9375 12.453125 C 17.28125 12.296875 17.46875 12.25 17.765625 12.25 C 18.273438 12.25 18.742188 12.460938 19.109375 12.863281 C 19.605469 13.394531 19.773438 14.152344 19.574219 14.933594 C 19.464844 15.359375 19.300781 15.609375 19.046875 15.738281 C 18.75 15.886719 18.375 15.835938 17.949219 15.589844 C 17.746094 15.46875 17.34375 15.179688 17.34375 15.148438 C 17.34375 15.136719 17.394531 15.039062 17.460938 14.929688 C 17.605469 14.679688 17.675781 14.460938 17.675781 14.238281 C 17.675781 13.644531 17.277344 13.136719 16.757812 13.074219 C 16.566406 13.054688 16.289062 13.105469 16.105469 13.191406 C 15.941406 13.265625 15.832031 13.394531 15.707031 13.640625 C 15.605469 13.84375 15.585938 13.945312 15.5625 14.464844 C 15.550781 14.738281 15.527344 14.996094 15.515625 15.039062 C 15.488281 15.140625 15.40625 15.144531 15.378906 15.042969 C 15.367188 15.007812 15.351562 14.945312 15.335938 14.90625 C 15.3125 14.8125 15.238281 14.800781 15.207031 14.886719 C 15.171875 14.972656 15.132812 15.460938 15.125 15.816406 C 15.121094 16.132812 15.101562 16.238281 15.050781 16.238281 C 15 16.238281 14.953125 16.085938 14.953125 15.914062 C 14.949219 15.691406 14.921875 15.535156 14.882812 15.519531 C 14.863281 15.511719 14.765625 15.542969 14.671875 15.585938 C 14.464844 15.6875 14.414062 15.679688 14.414062 15.542969 C 14.414062 15.363281 14.351562 15.347656 14.21875 15.492188 C 14.058594 15.660156 14.09375 16.289062 14.28125 16.558594 C 14.332031 16.632812 14.34375 16.675781 14.328125 16.738281 C 14.308594 16.84375 14.246094 16.910156 14.160156 16.910156 C 14.074219 16.910156 14.003906 16.792969 13.933594 16.515625 C 13.867188 16.273438 13.828125 16.207031 13.71875 16.160156 C 13.601562 16.113281 13.484375 16.148438 13.371094 16.261719 C 13.28125 16.355469 13.28125 16.355469 13.285156 16.574219 C 13.289062 16.824219 13.347656 17.125 13.414062 17.265625 C 13.476562 17.394531 13.582031 17.40625 13.648438 17.296875 C 13.695312 17.210938 13.800781 17.167969 13.972656 17.167969 C 14.144531 17.167969 14.363281 17.039062 14.570312 16.816406 C 14.894531 16.464844 14.925781 16.445312 15.136719 16.441406 C 15.371094 16.4375 15.433594 16.40625 15.433594 16.285156 C 15.433594 16.121094 15.539062 15.988281 15.738281 15.894531 C 15.894531 15.828125 16.023438 15.828125 16.25 15.90625 C 16.5 15.992188 16.636719 15.988281 16.707031 15.902344 C 16.734375 15.867188 16.765625 15.816406 16.773438 15.789062 C 16.785156 15.753906 16.8125 15.738281 16.878906 15.738281 C 16.949219 15.738281 16.988281 15.761719 17.0625 15.835938 C 17.113281 15.886719 17.175781 15.96875 17.195312 16.015625 C 17.273438 16.160156 17.421875 16.207031 17.855469 16.222656 C 18.148438 16.234375 18.238281 16.246094 18.292969 16.28125 C 18.390625 16.34375 18.382812 16.414062 18.265625 16.53125 C 18.089844 16.707031 17.609375 16.796875 16.996094 16.769531 C 16.617188 16.75 16.542969 16.726562 16.414062 16.585938 C 16.296875 16.464844 16.253906 16.457031 16.1875 16.558594 C 16.078125 16.730469 16.019531 17.179688 15.996094 18.109375 C 15.980469 18.835938 15.964844 18.949219 15.882812 18.949219 C 15.835938 18.949219 15.792969 18.816406 15.792969 18.683594 C 15.792969 18.519531 15.726562 18.179688 15.636719 17.878906 C 15.433594 17.195312 15.40625 17.117188 15.367188 17.117188 C 15.347656 17.117188 15.324219 17.132812 15.316406 17.152344 C 15.277344 17.25 15.429688 18.765625 15.5 19 C 15.542969 19.152344 15.621094 19.253906 15.6875 19.253906 C 15.710938 19.253906 15.789062 19.226562 15.863281 19.191406 C 16.042969 19.105469 16.0625 19.109375 16.050781 19.210938 C 16.042969 19.273438 16.0625 19.320312 16.121094 19.394531 C 16.164062 19.449219 16.234375 19.542969 16.273438 19.597656 C 16.324219 19.660156 16.347656 19.714844 16.339844 19.742188 C 16.324219 19.789062 16.339844 19.796875 16.539062 19.824219 C 16.6875 19.847656 16.726562 19.894531 16.738281 20.078125 C 16.746094 20.199219 16.777344 20.292969 16.859375 20.476562 C 16.960938 20.691406 16.976562 20.738281 16.972656 20.894531 L 16.972656 21.0625 L 17.054688 21.046875 C 17.15625 21.03125 17.230469 21.070312 17.28125 21.164062 C 17.351562 21.296875 17.332031 21.390625 17.21875 21.5 C 17.160156 21.550781 17.070312 21.609375 17.011719 21.625 C 16.949219 21.640625 16.832031 21.71875 16.691406 21.84375 C 16.449219 22.050781 16.21875 22.207031 15.890625 22.386719 C 15.773438 22.453125 15.601562 22.578125 15.496094 22.675781 C 15.390625 22.773438 15.308594 22.847656 15.308594 22.839844 C 15.308594 22.832031 15.351562 22.730469 15.410156 22.609375 C 15.511719 22.386719 15.539062 22.261719 15.476562 22.261719 C 15.441406 22.261719 15.246094 22.394531 15.21875 22.4375 C 15.210938 22.453125 15.15625 22.488281 15.101562 22.515625 C 15.007812 22.5625 15 22.5625 14.980469 22.519531 C 14.902344 22.375 14.867188 21.523438 14.9375 21.429688 C 14.980469 21.375 14.984375 21.207031 14.949219 21.039062 C 14.9375 20.972656 14.914062 20.722656 14.902344 20.476562 C 14.871094 19.949219 14.847656 19.808594 14.730469 19.585938 C 14.648438 19.4375 14.640625 19.40625 14.65625 19.289062 C 14.671875 19.144531 14.65625 19.078125 14.605469 19.078125 C 14.546875 19.078125 14.53125 19.269531 14.539062 19.96875 C 14.539062 20.953125 14.601562 21.71875 14.6875 21.886719 C 14.773438 22.054688 14.753906 22.511719 14.640625 22.722656 C 14.617188 22.773438 14.554688 22.851562 14.503906 22.890625 C 14.457031 22.925781 14.414062 22.96875 14.414062 22.976562 C 14.414062 22.984375 14.472656 23 14.546875 23.003906 C 14.746094 23.023438 14.765625 23.113281 14.589844 23.203125 C 14.460938 23.273438 14.292969 23.269531 14.183594 23.195312 C 14.085938 23.132812 13.957031 22.925781 13.882812 22.722656 C 13.800781 22.507812 13.703125 21.992188 13.683594 21.683594 C 13.667969 21.398438 13.667969 21.398438 13.738281 21.335938 C 13.773438 21.304688 13.804688 21.265625 13.804688 21.257812 C 13.804688 21.25 13.769531 21.1875 13.726562 21.121094 C 13.625 20.953125 13.5625 20.71875 13.496094 20.214844 C 13.46875 19.988281 13.417969 19.691406 13.394531 19.5625 C 13.25 18.878906 13.1875 18.507812 13.105469 17.960938 C 12.957031 17 12.863281 16.582031 12.773438 16.488281 C 12.753906 16.464844 12.734375 16.429688 12.734375 16.40625 C 12.734375 16.253906 13.140625 15.847656 14.148438 15 C 14.539062 14.671875 14.96875 14.296875 15.097656 14.171875 C 15.300781 13.972656 15.335938 13.925781 15.328125 13.867188 C 15.3125 13.734375 15.179688 13.730469 14.390625 13.84375 C 13.921875 13.910156 13.648438 13.964844 13.46875 14.023438 C 13.207031 14.109375 13.375 14.148438 13.84375 14.113281 C 14.027344 14.101562 14.175781 14.09375 14.179688 14.09375 C 14.179688 14.097656 13.988281 14.183594 13.746094 14.285156 C 13.101562 14.5625 12.515625 14.855469 12.316406 15.003906 C 11.90625 15.316406 11.816406 15.644531 11.972656 16.257812 C 12 16.375 12.117188 16.742188 12.226562 17.078125 C 12.335938 17.414062 12.496094 17.921875 12.578125 18.210938 C 12.664062 18.5 12.78125 18.875 12.84375 19.050781 C 13.023438 19.5625 13.113281 20.011719 13.179688 20.835938 C 13.285156 22.058594 13.441406 22.789062 13.75 23.441406 C 14.027344 24.03125 14.640625 24.808594 14.925781 24.933594 C 15.21875 25.058594 15.988281 25.21875 16.683594 25.292969 C 17.066406 25.335938 17.691406 25.335938 17.8125 25.296875 C 18.136719 25.183594 17.566406 24.828125 16.796875 24.667969 C 16.683594 24.644531 16.421875 24.613281 16.210938 24.601562 C 15.636719 24.5625 15.332031 24.484375 15.097656 24.316406 C 14.933594 24.203125 14.867188 24.109375 14.855469 23.984375 C 14.84375 23.847656 14.914062 23.734375 15.066406 23.640625 C 15.332031 23.484375 15.816406 23.171875 16.195312 22.921875 C 16.414062 22.773438 16.84375 22.496094 17.152344 22.3125 C 17.738281 21.960938 18.03125 21.769531 18.1875 21.640625 C 18.257812 21.585938 18.324219 21.5625 18.457031 21.546875 C 18.835938 21.5 20.433594 21.464844 21.636719 21.480469 C 23.449219 21.503906 23.859375 21.542969 24.105469 21.707031 C 24.316406 21.84375 24.496094 22.113281 25.070312 23.164062 C 25.265625 23.511719 25.453125 23.839844 25.484375 23.882812 C 25.648438 24.097656 25.722656 24.035156 25.871094 23.570312 C 26.105469 22.847656 26.179688 22.386719 26.199219 21.605469 C 26.222656 20.761719 26.15625 20.179688 25.964844 19.5625 C 25.835938 19.148438 25.710938 18.910156 25.492188 18.644531 C 25.371094 18.496094 25.292969 18.324219 25.292969 18.199219 C 25.292969 18.121094 25.308594 18.085938 25.386719 18.007812 C 25.519531 17.875 25.683594 17.832031 26.144531 17.804688 C 26.566406 17.777344 26.683594 17.753906 26.785156 17.664062 C 26.839844 17.617188 26.847656 17.597656 26.824219 17.554688 C 26.785156 17.480469 26.699219 17.472656 26.140625 17.472656 C 25.636719 17.472656 25.28125 17.503906 25.21875 17.554688 C 25.160156 17.601562 25.011719 17.941406 24.820312 18.453125 C 24.289062 19.867188 23.917969 20.503906 23.628906 20.503906 C 23.574219 20.503906 23.523438 20.472656 23.449219 20.402344 C 23.351562 20.300781 23.347656 20.296875 23.367188 20.160156 C 23.386719 19.972656 23.515625 19.617188 23.894531 18.707031 C 24.292969 17.753906 24.34375 17.605469 24.300781 17.488281 C 24.269531 17.410156 24.171875 17.378906 23.914062 17.359375 C 23.597656 17.339844 23.070312 17.183594 22.386719 16.90625 C 21.988281 16.746094 21.40625 16.449219 21.3125 16.363281 C 21.214844 16.273438 21.222656 16.179688 21.332031 16.03125 C 21.476562 15.84375 21.660156 15.515625 21.980469 14.863281 C 22.664062 13.472656 22.890625 12.835938 22.972656 12.09375 C 23.109375 10.847656 22.703125 9.566406 21.910156 8.734375 C 21.613281 8.421875 21.320312 8.207031 20.921875 8.011719 C 20.378906 7.738281 20.050781 7.6875 19.457031 7.792969 Z M 20.328125 8.554688 C 20.78125 8.675781 21.246094 8.941406 21.492188 9.207031 C 22.046875 9.8125 22.359375 10.960938 22.261719 12.023438 C 22.21875 12.46875 22.121094 12.929688 21.953125 13.429688 C 21.667969 14.3125 21.402344 14.851562 20.972656 15.449219 C 20.761719 15.738281 20.671875 15.878906 20.664062 15.945312 C 20.644531 16.070312 20.730469 16.230469 20.859375 16.3125 C 20.914062 16.347656 20.960938 16.390625 20.960938 16.40625 C 20.960938 16.421875 20.875 16.523438 20.769531 16.632812 C 20.570312 16.839844 20.503906 16.957031 20.503906 17.09375 C 20.503906 17.246094 20.578125 17.320312 20.914062 17.515625 C 21.085938 17.613281 21.355469 17.769531 21.511719 17.859375 C 21.863281 18.0625 22.273438 18.226562 22.570312 18.289062 C 22.90625 18.351562 22.90625 18.355469 22.75 18.6875 C 22.613281 18.972656 22.566406 19.117188 22.566406 19.234375 C 22.566406 19.273438 22.539062 19.335938 22.503906 19.375 C 22.453125 19.4375 22.425781 19.445312 22.3125 19.441406 C 22.050781 19.433594 21.625 19.175781 21.265625 18.804688 C 21.027344 18.558594 20.863281 18.316406 20.746094 18.035156 C 20.636719 17.773438 20.527344 17.585938 20.386719 17.425781 C 20.292969 17.320312 20.277344 17.3125 20.238281 17.34375 C 20.191406 17.382812 20.085938 17.550781 20.046875 17.652344 C 20 17.78125 20.289062 18.480469 20.570312 18.90625 C 20.71875 19.128906 21.046875 19.460938 21.253906 19.605469 C 21.425781 19.71875 21.910156 19.949219 22.070312 19.992188 C 22.125 20.007812 22.285156 20.042969 22.425781 20.070312 C 22.855469 20.15625 22.871094 20.175781 22.757812 20.398438 C 22.699219 20.515625 22.671875 20.535156 22.503906 20.59375 C 22.472656 20.601562 22.175781 20.617188 21.839844 20.628906 C 20.59375 20.679688 20.117188 20.71875 19.523438 20.835938 C 19.019531 20.933594 18.726562 21.019531 18.488281 21.140625 C 18.25 21.265625 18.117188 21.273438 17.925781 21.175781 C 17.652344 21.035156 17.289062 20.605469 17.191406 20.308594 C 17.132812 20.125 17.066406 20.015625 16.917969 19.867188 C 16.824219 19.773438 16.734375 19.605469 16.734375 19.515625 C 16.734375 19.429688 16.648438 19.253906 16.488281 19.027344 C 16.269531 18.703125 16.238281 18.609375 16.238281 18.273438 C 16.242188 18.023438 16.257812 17.941406 16.367188 17.511719 L 16.492188 17.027344 L 17.101562 17.035156 C 17.636719 17.042969 17.746094 17.035156 17.953125 16.992188 C 18.125 16.957031 18.210938 16.921875 18.257812 16.878906 C 18.292969 16.84375 18.371094 16.800781 18.425781 16.785156 C 18.691406 16.707031 18.984375 16.492188 19.320312 16.144531 C 19.757812 15.695312 19.976562 15.195312 20.042969 14.519531 C 20.140625 13.589844 19.78125 12.777344 19.042969 12.222656 C 18.925781 12.140625 18.796875 12.035156 18.75 11.992188 C 18.703125 11.953125 18.59375 11.882812 18.507812 11.839844 C 18.160156 11.664062 17.21875 11.121094 17.070312 11.011719 C 16.921875 10.902344 16.941406 10.875 17.375 10.621094 C 17.640625 10.464844 17.738281 10.359375 17.820312 10.15625 C 18.097656 9.410156 18.636719 8.78125 19.15625 8.59375 C 19.503906 8.46875 19.957031 8.453125 20.328125 8.554688 Z M 16.707031 14.394531 C 16.753906 14.460938 16.796875 14.566406 16.824219 14.691406 C 16.875 14.917969 16.894531 14.964844 16.980469 15.058594 C 17.070312 15.152344 17.042969 15.238281 16.898438 15.332031 C 16.742188 15.429688 16.558594 15.46875 16.347656 15.453125 C 15.890625 15.414062 15.851562 15.207031 16.222656 14.785156 C 16.410156 14.578125 16.53125 14.40625 16.53125 14.355469 C 16.53125 14.253906 16.617188 14.269531 16.707031 14.394531 Z M 16.707031 14.394531 "/>
<path style=" stroke:none;fill-rule:nonzero;fill:rgb(94.901961%,43.137255%,34.901961%);fill-opacity:1;" d="M 26.207031 9.5625 C 26.15625 9.625 26.207031 9.796875 26.390625 10.1875 C 26.585938 10.613281 26.695312 10.921875 26.792969 11.304688 C 27.078125 12.441406 27.054688 13.546875 26.71875 14.734375 C 26.597656 15.160156 26.390625 15.773438 26.261719 16.070312 L 26.171875 16.289062 L 25.980469 16.296875 C 25.765625 16.304688 25.65625 16.347656 25.621094 16.449219 C 25.574219 16.566406 25.734375 17.128906 25.839844 17.21875 C 25.898438 17.265625 25.992188 17.253906 26.078125 17.195312 C 26.273438 17.058594 26.828125 16.039062 27.042969 15.433594 C 27.457031 14.25 27.566406 12.910156 27.339844 11.730469 C 27.230469 11.175781 27.0625 10.71875 26.800781 10.28125 C 26.632812 10.003906 26.523438 9.789062 26.503906 9.679688 C 26.496094 9.632812 26.476562 9.578125 26.460938 9.558594 C 26.417969 9.511719 26.25 9.515625 26.207031 9.5625 Z M 26.207031 9.5625 "/>
<path style=" stroke:none;fill-rule:nonzero;fill:rgb(94.901961%,43.137255%,34.901961%);fill-opacity:1;" d="M 12.878906 14.199219 C 12.542969 14.328125 12.402344 14.398438 12.035156 14.640625 C 11.691406 14.867188 11.464844 14.957031 10.785156 15.128906 C 9.679688 15.410156 8.535156 15.855469 7.230469 16.507812 C 6.234375 17.003906 5.539062 17.441406 5.164062 17.804688 C 5.03125 17.929688 4.671875 18.230469 4.367188 18.46875 C 3.253906 19.339844 2.890625 19.707031 2.609375 20.25 C 2.542969 20.378906 2.496094 20.484375 2.5 20.492188 C 2.503906 20.496094 2.703125 20.320312 2.941406 20.101562 C 3.664062 19.449219 3.988281 19.203125 4.488281 18.9375 C 4.976562 18.679688 5.519531 18.496094 6.101562 18.398438 C 6.5 18.328125 7.351562 18.335938 7.777344 18.410156 C 8.914062 18.613281 9.859375 19.089844 10.65625 19.863281 C 11.472656 20.660156 11.964844 21.632812 12.109375 22.738281 C 12.15625 23.117188 12.160156 23.496094 12.121094 23.980469 C 12.074219 24.507812 12.082031 24.535156 12.351562 24.832031 C 12.710938 25.226562 13.363281 25.980469 14.53125 27.339844 C 15.746094 28.761719 15.867188 28.898438 16.320312 29.398438 C 16.640625 29.75 16.867188 29.953125 16.941406 29.953125 C 16.964844 29.953125 17.011719 29.910156 17.054688 29.859375 C 17.167969 29.710938 17.640625 29.171875 18.097656 28.679688 C 18.769531 27.949219 18.976562 27.714844 18.976562 27.664062 C 18.976562 27.597656 18.753906 26.535156 18.691406 26.296875 C 18.578125 25.882812 18.460938 25.675781 18.296875 25.605469 C 18.222656 25.574219 18.183594 25.578125 17.847656 25.660156 C 17.285156 25.800781 16.84375 25.855469 16.324219 25.859375 C 16.066406 25.859375 15.8125 25.847656 15.71875 25.828125 C 15.546875 25.796875 15.308594 25.691406 15.308594 25.648438 C 15.308594 25.605469 15.199219 25.566406 15.015625 25.542969 C 14.773438 25.511719 14.601562 25.421875 14.355469 25.1875 C 13.6875 24.558594 13.074219 23.324219 12.871094 22.195312 C 12.851562 22.085938 12.824219 21.746094 12.8125 21.441406 C 12.773438 20.59375 12.664062 19.769531 12.546875 19.433594 C 12.433594 19.121094 12.304688 18.835938 12.257812 18.800781 C 12.226562 18.777344 12.15625 18.769531 12.007812 18.777344 C 11.84375 18.789062 11.691406 18.828125 11.214844 18.984375 C 10.894531 19.09375 10.617188 19.179688 10.601562 19.179688 C 10.582031 19.179688 10.382812 19.039062 10.15625 18.867188 C 9.488281 18.363281 9.277344 18.25 8.925781 18.207031 C 8.671875 18.179688 8.40625 18.097656 8.15625 17.972656 C 7.90625 17.84375 7.777344 17.742188 7.6875 17.597656 C 7.601562 17.457031 7.546875 17.417969 7.46875 17.4375 C 7.429688 17.449219 7.410156 17.441406 7.410156 17.417969 C 7.410156 17.347656 7.605469 17.078125 7.738281 16.957031 C 7.871094 16.839844 7.945312 16.816406 7.894531 16.910156 C 7.855469 16.980469 7.863281 17.011719 7.914062 17.011719 C 7.980469 17.011719 8.128906 16.917969 8.144531 16.859375 C 8.15625 16.800781 8.332031 16.726562 8.660156 16.648438 C 8.808594 16.613281 9.023438 16.550781 9.144531 16.507812 C 9.363281 16.429688 9.414062 16.429688 9.375 16.5 C 9.328125 16.597656 9.410156 16.683594 9.554688 16.683594 C 9.652344 16.683594 9.71875 16.632812 9.695312 16.566406 C 9.6875 16.546875 9.65625 16.53125 9.628906 16.53125 C 9.601562 16.53125 9.570312 16.519531 9.5625 16.503906 C 9.503906 16.410156 9.832031 16.175781 10.480469 15.855469 C 10.777344 15.710938 11.078125 15.542969 11.15625 15.488281 C 11.257812 15.410156 11.3125 15.382812 11.371094 15.390625 C 11.464844 15.394531 11.613281 15.3125 11.808594 15.148438 C 12.339844 14.707031 12.484375 14.605469 12.828125 14.429688 C 13.078125 14.304688 13.21875 14.195312 13.21875 14.125 C 13.21875 14.101562 13.210938 14.085938 13.199219 14.085938 C 13.1875 14.085938 13.046875 14.136719 12.878906 14.199219 Z M 12.363281 19.601562 C 12.371094 19.625 12.390625 19.816406 12.402344 20.027344 C 12.460938 20.910156 12.484375 21.1875 12.519531 21.382812 C 12.539062 21.492188 12.546875 21.59375 12.535156 21.605469 C 12.496094 21.644531 12.375 21.566406 12.328125 21.472656 C 12.257812 21.332031 12.21875 21.078125 12.238281 20.855469 C 12.25 20.746094 12.25 20.625 12.238281 20.582031 C 12.226562 20.515625 12.210938 20.503906 12.128906 20.496094 C 12.046875 20.492188 12.035156 20.480469 12.027344 20.417969 C 12.023438 20.375 12.039062 20.320312 12.085938 20.269531 C 12.144531 20.199219 12.144531 20.183594 12.117188 20.136719 C 12.0625 20.058594 12.019531 20.058594 11.894531 20.144531 C 11.832031 20.1875 11.773438 20.222656 11.761719 20.222656 C 11.75 20.222656 11.765625 20.15625 11.792969 20.074219 C 11.816406 19.996094 11.847656 19.890625 11.859375 19.839844 C 11.882812 19.757812 11.890625 19.75 11.984375 19.757812 C 12.074219 19.765625 12.101562 19.753906 12.199219 19.664062 C 12.328125 19.550781 12.339844 19.546875 12.363281 19.601562 Z M 14.273438 25.417969 C 14.296875 25.441406 14.328125 25.523438 14.335938 25.597656 C 14.347656 25.671875 14.375 25.738281 14.394531 25.753906 C 14.414062 25.765625 14.503906 25.773438 14.597656 25.773438 C 14.773438 25.773438 14.824219 25.800781 14.824219 25.890625 C 14.824219 25.964844 14.683594 26.238281 14.605469 26.308594 L 14.542969 26.367188 L 14.542969 26.292969 C 14.542969 26.1875 14.484375 26.144531 14.347656 26.152344 L 14.230469 26.15625 L 14.296875 26.105469 C 14.335938 26.074219 14.378906 26.03125 14.394531 26 C 14.429688 25.929688 14.375 25.871094 14.289062 25.882812 C 14.199219 25.902344 14.167969 25.878906 14.136719 25.773438 C 14.109375 25.675781 14.101562 25.46875 14.125 25.410156 C 14.144531 25.351562 14.21875 25.359375 14.273438 25.417969 Z M 18.300781 26.542969 C 18.378906 26.800781 18.382812 26.878906 18.3125 26.859375 C 18.242188 26.835938 18.191406 26.945312 18.234375 27.039062 C 18.257812 27.09375 18.273438 27.101562 18.339844 27.085938 C 18.40625 27.070312 18.414062 27.078125 18.414062 27.136719 C 18.414062 27.222656 18.351562 27.34375 18.300781 27.363281 C 18.277344 27.371094 18.230469 27.378906 18.199219 27.378906 C 18.160156 27.378906 18.117188 27.40625 18.089844 27.445312 C 18 27.574219 17.90625 27.660156 17.847656 27.660156 C 17.765625 27.660156 17.726562 27.691406 17.710938 27.777344 C 17.695312 27.878906 17.546875 28.046875 17.324219 28.226562 C 17.078125 28.421875 16.917969 28.5 16.773438 28.5 C 16.707031 28.5 16.65625 28.492188 16.65625 28.480469 C 16.65625 28.46875 16.703125 28.402344 16.761719 28.335938 C 16.878906 28.195312 16.972656 28.019531 17 27.898438 C 17.039062 27.714844 16.84375 27.742188 16.667969 27.949219 C 16.589844 28.042969 16.582031 28.046875 16.585938 27.992188 C 16.59375 27.933594 16.582031 27.925781 16.503906 27.925781 C 16.367188 27.925781 16.144531 27.78125 15.855469 27.496094 C 15.59375 27.242188 15.53125 27.144531 15.585938 27.09375 C 15.617188 27.0625 15.714844 27.136719 15.714844 27.1875 C 15.714844 27.238281 15.792969 27.257812 15.832031 27.222656 C 15.902344 27.167969 15.796875 26.980469 15.660156 26.914062 C 15.578125 26.875 15.574219 26.875 15.492188 26.949219 C 15.441406 26.996094 15.382812 27.023438 15.351562 27.019531 C 15.300781 27.011719 15.292969 26.996094 15.292969 26.875 C 15.292969 26.730469 15.277344 26.707031 15.03125 26.519531 C 14.894531 26.417969 14.933594 26.355469 15.160156 26.324219 C 15.226562 26.3125 15.308594 26.3125 15.347656 26.320312 C 15.402344 26.335938 15.410156 26.347656 15.398438 26.398438 C 15.359375 26.550781 15.652344 26.535156 15.882812 26.375 L 16.007812 26.285156 L 16.066406 26.359375 C 16.144531 26.460938 16.253906 26.488281 16.71875 26.515625 C 17.140625 26.535156 17.230469 26.558594 17.371094 26.65625 C 17.492188 26.738281 17.800781 26.765625 17.980469 26.710938 L 18.097656 26.675781 L 18.089844 26.519531 C 18.085938 26.4375 18.09375 26.335938 18.109375 26.292969 L 18.140625 26.222656 L 18.1875 26.28125 C 18.214844 26.3125 18.265625 26.433594 18.300781 26.542969 Z M 18.300781 26.542969 "/>
<path style=" stroke:none;fill-rule:nonzero;fill:rgb(94.901961%,43.137255%,34.901961%);fill-opacity:1;" d="M 11.105469 17.105469 C 10.867188 17.152344 10.589844 17.269531 10.210938 17.488281 C 9.90625 17.664062 9.878906 17.722656 10.058594 17.851562 C 10.132812 17.90625 10.164062 17.898438 10.164062 17.828125 C 10.164062 17.765625 10.234375 17.710938 10.347656 17.691406 C 10.410156 17.679688 10.460938 17.648438 10.5 17.597656 C 10.65625 17.382812 10.710938 17.34375 10.84375 17.34375 C 10.945312 17.34375 10.996094 17.363281 11.132812 17.449219 C 11.339844 17.585938 11.4375 17.625 11.546875 17.625 C 11.679688 17.625 11.75 17.554688 11.75 17.425781 C 11.75 17.21875 11.609375 17.113281 11.332031 17.101562 C 11.242188 17.097656 11.140625 17.101562 11.105469 17.105469 Z M 11.105469 17.105469 "/>
<path style=" stroke:none;fill-rule:nonzero;fill:rgb(94.901961%,43.137255%,34.901961%);fill-opacity:1;" d="M 9.550781 17.921875 C 9.429688 17.964844 9.417969 18.105469 9.535156 18.222656 C 9.632812 18.335938 9.773438 18.367188 9.871094 18.300781 C 10.0625 18.175781 9.78125 17.839844 9.550781 17.921875 Z M 9.550781 17.921875 "/>
<path style=" stroke:none;fill-rule:nonzero;fill:rgb(94.901961%,43.137255%,34.901961%);fill-opacity:1;" d="M 7.628906 19.207031 C 7.324219 19.242188 6.960938 19.339844 6.695312 19.457031 C 6.414062 19.578125 6.300781 19.660156 6.324219 19.722656 C 6.335938 19.757812 6.382812 19.765625 6.640625 19.761719 C 6.941406 19.761719 7.023438 19.753906 7.558594 19.679688 C 8.003906 19.613281 8.246094 19.546875 8.449219 19.425781 C 8.578125 19.347656 8.597656 19.292969 8.515625 19.238281 C 8.433594 19.183594 7.957031 19.167969 7.628906 19.207031 Z M 7.628906 19.207031 "/>
<path style=" stroke:none;fill-rule:nonzero;fill:rgb(94.901961%,43.137255%,34.901961%);fill-opacity:1;" d="M 15.679688 19.457031 C 15.652344 19.503906 15.695312 20.425781 15.726562 20.425781 C 15.785156 20.425781 16.058594 19.894531 16.109375 19.679688 C 16.136719 19.570312 16.03125 19.589844 15.972656 19.707031 C 15.957031 19.738281 15.929688 19.765625 15.917969 19.765625 C 15.90625 19.765625 15.859375 19.695312 15.816406 19.613281 C 15.738281 19.457031 15.703125 19.414062 15.679688 19.457031 Z M 15.679688 19.457031 "/>
<path style=" stroke:none;fill-rule:nonzero;fill:rgb(94.901961%,43.137255%,34.901961%);fill-opacity:1;" d="M 4.609375 20.019531 C 4.25 20.0625 3.816406 20.210938 3.480469 20.410156 C 2.953125 20.722656 2.582031 21.117188 2.242188 21.726562 C 2.183594 21.832031 2.082031 21.984375 2.011719 22.0625 C 1.867188 22.234375 1.84375 22.320312 1.847656 22.71875 C 1.855469 23.160156 1.960938 23.699219 2.113281 24.027344 C 2.238281 24.304688 2.621094 24.78125 2.960938 25.085938 C 3.925781 25.9375 5.121094 26.132812 6.164062 25.609375 C 6.796875 25.292969 7.367188 24.695312 7.613281 24.105469 C 7.777344 23.710938 7.804688 23.570312 7.804688 23.050781 C 7.804688 22.617188 7.796875 22.558594 7.734375 22.335938 C 7.484375 21.421875 6.875 20.671875 6.074219 20.285156 C 5.574219 20.042969 5.121094 19.960938 4.609375 20.019531 Z M 5.273438 20.964844 C 5.316406 21.011719 5.367188 21.074219 5.398438 21.105469 C 5.433594 21.148438 5.472656 21.160156 5.605469 21.160156 C 5.917969 21.164062 6.648438 21.425781 6.648438 21.535156 C 6.648438 21.574219 6.175781 22.027344 5.984375 22.175781 C 5.902344 22.238281 5.792969 22.3125 5.730469 22.34375 C 5.625 22.402344 5.605469 22.429688 5.566406 22.589844 C 5.558594 22.636719 5.519531 22.671875 5.453125 22.699219 C 5.382812 22.730469 5.148438 22.957031 4.730469 23.390625 C 4.085938 24.0625 3.9375 24.234375 3.78125 24.503906 C 3.632812 24.753906 3.566406 24.832031 3.429688 24.910156 C 3.214844 25.035156 3.09375 25.003906 2.992188 24.808594 C 2.9375 24.703125 2.953125 24.617188 3.023438 24.609375 C 3.09375 24.597656 3.160156 24.511719 3.160156 24.425781 C 3.160156 24.304688 3.089844 24.265625 2.941406 24.296875 C 2.722656 24.347656 2.679688 24.265625 2.65625 23.738281 C 2.640625 23.34375 2.679688 22.890625 2.742188 22.800781 C 2.785156 22.730469 2.78125 22.59375 2.726562 22.289062 C 2.691406 22.125 2.695312 22.101562 2.730469 22.066406 C 2.769531 22.027344 2.777344 22.035156 2.875 22.136719 L 2.976562 22.246094 L 3.0625 22.167969 C 3.105469 22.121094 3.207031 22.050781 3.28125 22.003906 C 3.457031 21.898438 3.503906 21.8125 3.496094 21.589844 C 3.488281 21.375 3.511719 21.328125 3.632812 21.304688 C 3.75 21.285156 3.796875 21.25 3.796875 21.191406 C 3.796875 21.054688 3.980469 21.078125 4.152344 21.230469 C 4.269531 21.339844 4.402344 21.394531 4.535156 21.394531 C 4.652344 21.394531 4.652344 21.359375 4.535156 21.332031 C 4.371094 21.304688 4.277344 21.121094 4.371094 21.027344 C 4.433594 20.964844 4.476562 20.980469 4.585938 21.089844 C 4.664062 21.171875 4.703125 21.191406 4.777344 21.191406 C 4.878906 21.191406 4.964844 21.121094 4.964844 21.03125 C 4.964844 20.875 5.15625 20.835938 5.273438 20.964844 Z M 6.621094 22.535156 C 6.667969 22.554688 6.738281 22.566406 6.777344 22.566406 C 6.882812 22.566406 6.933594 22.679688 6.949219 22.953125 C 6.957031 23.160156 6.957031 23.183594 6.875 23.347656 C 6.789062 23.527344 6.789062 23.578125 6.839844 23.921875 C 6.855469 23.996094 6.847656 24.019531 6.8125 24.035156 C 6.789062 24.042969 6.601562 24.027344 6.402344 23.992188 C 6.199219 23.960938 6.03125 23.9375 6.027344 23.945312 C 6.019531 23.949219 6.039062 24.097656 6.0625 24.273438 C 6.148438 24.851562 6.140625 24.875 5.859375 24.949219 C 5.640625 25.003906 5.550781 25.050781 5.550781 25.117188 C 5.550781 25.144531 5.527344 25.175781 5.484375 25.1875 C 5.40625 25.222656 5.023438 25.222656 5.003906 25.191406 C 4.996094 25.179688 5.023438 25.144531 5.070312 25.113281 C 5.164062 25.046875 5.167969 25.003906 5.078125 25.035156 C 4.835938 25.128906 4.121094 24.984375 4.238281 24.867188 C 4.25 24.855469 4.289062 24.859375 4.328125 24.875 L 4.402344 24.902344 L 4.386719 24.753906 C 4.371094 24.574219 4.4375 24.347656 4.582031 24.082031 C 4.660156 23.9375 4.695312 23.894531 4.777344 23.855469 C 4.964844 23.769531 5.199219 23.492188 5.257812 23.296875 L 5.289062 23.191406 L 5.421875 23.191406 C 5.558594 23.1875 5.601562 23.160156 5.601562 23.074219 C 5.601562 22.929688 6.011719 22.773438 6.210938 22.839844 C 6.292969 22.867188 6.332031 22.855469 6.347656 22.78125 C 6.355469 22.734375 6.378906 22.726562 6.480469 22.746094 C 6.5625 22.761719 6.558594 22.675781 6.472656 22.535156 L 6.394531 22.410156 L 6.460938 22.460938 C 6.503906 22.484375 6.570312 22.519531 6.621094 22.535156 Z M 6.621094 22.535156 "/>
<path style=" stroke:none;fill-rule:nonzero;fill:rgb(94.901961%,43.137255%,34.901961%);fill-opacity:1;" d="M 9.691406 20.210938 C 8.882812 20.402344 8.128906 20.679688 7.902344 20.871094 C 7.753906 20.992188 7.824219 21.140625 8.023438 21.140625 C 8.136719 21.140625 8.53125 21.046875 9.066406 20.898438 C 9.300781 20.835938 9.675781 20.742188 9.90625 20.695312 C 10.140625 20.644531 10.351562 20.589844 10.386719 20.574219 C 10.496094 20.519531 10.441406 20.453125 10.28125 20.453125 C 10.15625 20.453125 10.125 20.417969 10.125 20.28125 C 10.125 20.160156 10.125 20.160156 10.035156 20.152344 C 9.988281 20.152344 9.832031 20.175781 9.691406 20.210938 Z M 9.691406 20.210938 "/>
<path style=" stroke:none;fill-rule:nonzero;fill:rgb(94.901961%,43.137255%,34.901961%);fill-opacity:1;" d="M 9.179688 21.867188 C 8.933594 21.902344 8.644531 21.988281 8.566406 22.042969 C 8.5 22.089844 8.488281 22.179688 8.535156 22.265625 C 8.550781 22.292969 8.632812 22.402344 8.714844 22.496094 C 8.796875 22.597656 8.859375 22.695312 8.859375 22.714844 C 8.851562 22.746094 8.804688 22.761719 8.703125 22.773438 C 8.445312 22.808594 8.375 22.890625 8.550781 22.964844 C 8.785156 23.0625 9.027344 23.085938 9.894531 23.085938 C 10.84375 23.089844 11.035156 23.0625 11.203125 22.925781 C 11.328125 22.824219 11.328125 22.804688 11.191406 22.789062 C 11.128906 22.78125 11.0625 22.757812 11.050781 22.742188 C 11.039062 22.722656 11.035156 22.640625 11.042969 22.554688 C 11.054688 22.445312 11.050781 22.402344 11.027344 22.386719 C 11.007812 22.375 10.871094 22.371094 10.71875 22.378906 C 10.535156 22.390625 10.441406 22.386719 10.441406 22.371094 C 10.441406 22.328125 10.5 22.289062 10.578125 22.277344 C 10.617188 22.269531 10.675781 22.253906 10.707031 22.246094 C 10.746094 22.238281 10.777344 22.207031 10.792969 22.160156 C 10.8125 22.113281 10.84375 22.078125 10.878906 22.070312 C 11.070312 22.035156 11.082031 22.027344 11.074219 21.988281 C 11.054688 21.886719 10.597656 21.828125 9.894531 21.828125 C 9.613281 21.832031 9.292969 21.847656 9.179688 21.867188 Z M 10.140625 22.238281 C 10.175781 22.269531 10.175781 22.304688 10.164062 22.460938 C 10.152344 22.5625 10.140625 22.648438 10.132812 22.65625 C 10.125 22.664062 10.089844 22.628906 10.058594 22.582031 C 10.003906 22.488281 9.949219 22.464844 9.925781 22.519531 C 9.910156 22.5625 9.839844 22.480469 9.804688 22.367188 C 9.761719 22.246094 9.804688 22.210938 9.96875 22.210938 C 10.042969 22.210938 10.117188 22.226562 10.140625 22.238281 Z M 10.140625 22.238281 "/>
<path style=" stroke:none;fill-rule:nonzero;fill:rgb(94.901961%,43.137255%,34.901961%);fill-opacity:1;" d="M 19.292969 21.867188 C 19.195312 21.917969 19.007812 22.101562 18.960938 22.1875 C 18.871094 22.359375 18.945312 22.546875 19.15625 22.664062 C 19.441406 22.828125 19.757812 22.710938 19.839844 22.417969 C 19.890625 22.226562 19.753906 21.992188 19.523438 21.882812 C 19.394531 21.816406 19.390625 21.816406 19.292969 21.867188 Z M 19.292969 21.867188 "/>
<path style=" stroke:none;fill-rule:nonzero;fill:rgb(94.901961%,43.137255%,34.901961%);fill-opacity:1;" d="M 20.9375 22.179688 C 20.894531 22.210938 20.855469 22.402344 20.875 22.511719 C 20.902344 22.660156 20.972656 22.773438 21.105469 22.890625 C 21.230469 22.992188 21.273438 23.058594 21.304688 23.210938 C 21.316406 23.261719 21.347656 23.292969 21.410156 23.320312 C 21.484375 23.351562 21.5 23.367188 21.484375 23.414062 C 21.464844 23.503906 21.558594 23.671875 21.769531 23.894531 C 22.0625 24.207031 22.085938 24.269531 21.902344 24.273438 C 21.683594 24.273438 21.574219 24.621094 21.726562 24.816406 C 21.875 25 22.222656 24.875 22.269531 24.617188 L 22.289062 24.523438 L 22.363281 24.640625 C 22.40625 24.707031 22.578125 24.902344 22.75 25.078125 C 22.929688 25.261719 23.046875 25.40625 23.035156 25.417969 C 23.023438 25.429688 22.964844 25.445312 22.902344 25.449219 C 22.84375 25.453125 22.792969 25.46875 22.792969 25.480469 C 22.789062 25.496094 22.90625 25.546875 23.042969 25.597656 C 23.449219 25.742188 23.59375 25.882812 23.578125 26.117188 C 23.574219 26.242188 23.574219 26.246094 23.667969 26.277344 C 23.910156 26.355469 25.253906 26.40625 26.035156 26.363281 C 26.59375 26.332031 26.851562 26.296875 26.898438 26.242188 C 26.976562 26.148438 26.722656 25.84375 26.476562 25.726562 C 26.292969 25.640625 26.152344 25.507812 26.066406 25.34375 C 25.820312 24.851562 24.703125 23.382812 24.582031 23.382812 C 24.527344 23.382812 24.550781 23.519531 24.625 23.628906 C 24.898438 24.035156 25.113281 24.367188 25.328125 24.730469 C 25.46875 24.960938 25.640625 25.25 25.714844 25.371094 C 25.789062 25.492188 25.859375 25.625 25.867188 25.667969 C 25.878906 25.738281 25.875 25.746094 25.8125 25.761719 C 25.769531 25.765625 25.375 25.839844 24.933594 25.914062 C 24.492188 25.996094 24.113281 26.058594 24.085938 26.066406 C 24.027344 26.082031 23.980469 26 23.929688 25.800781 C 23.871094 25.578125 23.792969 25.410156 23.652344 25.222656 C 23.523438 25.050781 23.332031 24.910156 23.234375 24.910156 C 23.097656 24.910156 22.777344 24.53125 22.183594 23.660156 C 21.609375 22.820312 21.328125 22.449219 21.136719 22.269531 C 21.039062 22.179688 20.980469 22.15625 20.9375 22.179688 Z M 20.9375 22.179688 "/>
<path style=" stroke:none;fill-rule:nonzero;fill:rgb(94.901961%,43.137255%,34.901961%);fill-opacity:1;" d="M 1.246094 22.289062 C 1.15625 22.363281 0.894531 22.863281 0.777344 23.175781 C 0.714844 23.339844 0.703125 23.421875 0.691406 23.75 C 0.671875 24.164062 0.65625 24.222656 0.472656 24.476562 C 0.347656 24.648438 0.3125 24.726562 0.242188 25 C 0.113281 25.503906 0.078125 25.867188 0.078125 26.75 C 0.078125 27.464844 0.0820312 27.558594 0.117188 27.597656 C 0.15625 27.632812 0.164062 27.632812 0.214844 27.582031 C 0.265625 27.53125 0.265625 27.503906 0.269531 26.953125 C 0.273438 26.375 0.273438 26.371094 0.363281 26 C 0.503906 25.425781 0.683594 24.84375 0.789062 24.605469 C 0.933594 24.289062 1.0625 23.773438 1.195312 22.976562 C 1.261719 22.597656 1.300781 22.496094 1.386719 22.464844 C 1.445312 22.445312 1.453125 22.425781 1.445312 22.355469 C 1.4375 22.285156 1.429688 22.273438 1.363281 22.265625 C 1.320312 22.261719 1.269531 22.273438 1.246094 22.289062 Z M 1.246094 22.289062 "/>
<path style=" stroke:none;fill-rule:nonzero;fill:rgb(94.901961%,43.137255%,34.901961%);fill-opacity:1;" d="M 16.859375 22.945312 C 16.847656 22.972656 16.835938 23.019531 16.835938 23.050781 C 16.835938 23.125 16.789062 23.203125 16.746094 23.203125 C 16.640625 23.203125 16.597656 23.371094 16.667969 23.503906 C 16.761719 23.6875 17.039062 23.628906 17.152344 23.402344 C 17.199219 23.320312 17.203125 23.144531 17.164062 23.066406 C 17.078125 22.90625 16.917969 22.839844 16.859375 22.945312 Z M 16.859375 22.945312 "/>
<path style=" stroke:none;fill-rule:nonzero;fill:rgb(94.901961%,43.137255%,34.901961%);fill-opacity:1;" d="M 17.386719 23.375 C 17.351562 23.40625 17.371094 23.476562 17.429688 23.527344 C 17.71875 23.792969 19.925781 24.449219 20.257812 24.363281 C 20.34375 24.34375 20.382812 24.265625 20.359375 24.164062 C 20.300781 23.886719 19.496094 23.484375 19 23.484375 C 18.925781 23.484375 18.773438 23.503906 18.667969 23.535156 C 18.425781 23.597656 18.277344 23.597656 18.132812 23.53125 C 18.054688 23.492188 17.972656 23.476562 17.875 23.480469 C 17.769531 23.480469 17.695312 23.464844 17.59375 23.417969 C 17.453125 23.351562 17.417969 23.34375 17.386719 23.375 Z M 17.386719 23.375 "/>
<path style=" stroke:none;fill-rule:nonzero;fill:rgb(94.901961%,43.137255%,34.901961%);fill-opacity:1;" d="M 17.191406 24.089844 C 17.191406 24.105469 17.257812 24.15625 17.339844 24.207031 C 17.417969 24.253906 17.554688 24.355469 17.636719 24.425781 C 17.722656 24.496094 17.835938 24.566406 17.890625 24.582031 C 18.054688 24.625 18.105469 24.65625 18.136719 24.734375 C 18.199219 24.890625 18.390625 24.96875 18.429688 24.851562 C 18.453125 24.78125 18.332031 24.675781 17.980469 24.457031 C 17.519531 24.167969 17.191406 24.019531 17.191406 24.089844 Z M 17.191406 24.089844 "/>
<path style=" stroke:none;fill-rule:nonzero;fill:rgb(94.901961%,43.137255%,34.901961%);fill-opacity:1;" d="M 1.675781 24.238281 C 1.59375 24.328125 1.488281 24.535156 1.449219 24.6875 C 1.421875 24.789062 1.429688 24.824219 1.476562 24.964844 C 1.519531 25.085938 1.539062 25.222656 1.554688 25.507812 C 1.578125 25.960938 1.621094 26.113281 1.835938 26.621094 C 2.175781 27.417969 2.417969 27.792969 2.878906 28.230469 C 3.398438 28.722656 4.019531 29.054688 4.710938 29.203125 C 5.015625 29.269531 5.628906 29.269531 5.960938 29.203125 C 6.09375 29.179688 6.210938 29.144531 6.226562 29.132812 C 6.269531 29.097656 5.839844 28.703125 5.625 28.582031 C 5.519531 28.523438 5.308594 28.421875 5.15625 28.359375 C 4.328125 28.015625 3.261719 27.195312 2.742188 26.5 C 2.542969 26.230469 2.300781 25.757812 2.1875 25.417969 C 2.144531 25.285156 2.066406 24.980469 2.007812 24.742188 C 1.878906 24.191406 1.816406 24.089844 1.675781 24.238281 Z M 1.675781 24.238281 "/>
<path style=" stroke:none;fill-rule:nonzero;fill:rgb(94.901961%,43.137255%,34.901961%);fill-opacity:1;" d="M 8.117188 24.324219 C 7.878906 24.359375 7.851562 24.375 7.863281 24.488281 C 7.871094 24.558594 7.867188 24.578125 7.835938 24.578125 C 7.773438 24.578125 7.746094 24.679688 7.769531 24.808594 C 7.8125 25.035156 7.804688 25.082031 7.703125 25.125 C 7.628906 25.152344 7.617188 25.175781 7.617188 25.238281 C 7.617188 25.351562 7.652344 25.425781 7.777344 25.570312 C 7.84375 25.644531 7.894531 25.714844 7.894531 25.730469 C 7.910156 26.183594 8.042969 26.441406 8.375 26.660156 C 8.457031 26.710938 8.640625 26.875 8.792969 27.027344 C 8.960938 27.195312 9.078125 27.296875 9.101562 27.289062 C 9.125 27.28125 9.152344 27.3125 9.179688 27.378906 C 9.234375 27.523438 9.421875 27.714844 9.679688 27.898438 C 10.011719 28.132812 10.109375 28.21875 10.15625 28.316406 C 10.1875 28.386719 10.25 28.4375 10.375 28.515625 C 10.597656 28.648438 10.628906 28.6875 10.609375 28.8125 C 10.59375 28.898438 10.597656 28.910156 10.664062 28.9375 C 10.867188 29.015625 10.925781 29.054688 11.164062 29.25 C 11.304688 29.367188 11.554688 29.554688 11.714844 29.671875 C 11.875 29.789062 12.101562 29.960938 12.21875 30.058594 C 12.402344 30.214844 12.476562 30.289062 12.667969 30.523438 C 12.726562 30.597656 12.738281 30.601562 12.898438 30.597656 C 13.089844 30.589844 13.171875 30.617188 13.371094 30.75 C 13.542969 30.867188 13.777344 30.941406 14.097656 30.972656 C 14.4375 31.007812 14.6875 31.058594 14.964844 31.152344 C 15.136719 31.214844 15.21875 31.226562 15.316406 31.21875 C 15.417969 31.207031 15.433594 31.214844 15.417969 31.25 C 15.367188 31.375 15.351562 31.375 16.023438 31.351562 C 16.261719 31.339844 16.300781 31.34375 16.347656 31.390625 C 16.375 31.414062 16.394531 31.445312 16.386719 31.460938 C 16.371094 31.484375 16.257812 31.472656 16.148438 31.441406 C 16.128906 31.433594 16.09375 31.441406 16.074219 31.453125 C 16.042969 31.472656 16.042969 31.488281 16.070312 31.550781 C 16.105469 31.640625 16.230469 31.710938 16.351562 31.710938 C 16.414062 31.710938 16.457031 31.734375 16.523438 31.804688 C 16.609375 31.902344 16.609375 31.902344 16.832031 31.910156 C 17.160156 31.921875 17.152344 31.929688 17.152344 31.34375 C 17.152344 30.964844 17.144531 30.863281 17.109375 30.789062 C 17.019531 30.585938 16.828125 30.539062 16.28125 30.589844 C 16.003906 30.613281 15.851562 30.613281 15.585938 30.589844 C 14.589844 30.503906 13.273438 30.128906 12.578125 29.742188 C 12.214844 29.535156 10.917969 28.359375 9.3125 26.769531 C 8.417969 25.882812 8.144531 25.589844 8.15625 25.527344 C 8.167969 25.457031 8.34375 25.359375 8.828125 25.15625 C 9.453125 24.890625 9.714844 24.828125 10.542969 24.742188 C 10.953125 24.703125 11.371094 24.640625 11.445312 24.613281 C 11.507812 24.589844 11.496094 24.652344 11.40625 24.84375 C 11.363281 24.933594 11.332031 25.027344 11.339844 25.054688 C 11.347656 25.109375 11.488281 25.144531 11.628906 25.125 C 12.011719 25.074219 11.894531 24.597656 11.472656 24.492188 C 11.296875 24.445312 10.851562 24.386719 10.390625 24.347656 C 9.964844 24.3125 8.335938 24.296875 8.117188 24.324219 Z M 8.117188 24.324219 "/>
<path style=" stroke:none;fill-rule:nonzero;fill:rgb(94.901961%,43.137255%,34.901961%);fill-opacity:1;" d="M 19.257812 24.746094 C 19.09375 24.789062 18.925781 24.878906 18.886719 24.941406 C 18.820312 25.050781 19.082031 25.632812 19.304688 25.851562 C 19.652344 26.199219 20.167969 26.191406 20.410156 25.828125 C 20.539062 25.632812 20.589844 25.324219 20.519531 25.15625 C 20.378906 24.824219 19.742188 24.613281 19.257812 24.746094 Z M 19.257812 24.746094 "/>
<path style=" stroke:none;fill-rule:nonzero;fill:rgb(94.901961%,43.137255%,34.901961%);fill-opacity:1;" d="M 9.507812 25.144531 C 9.378906 25.207031 9.382812 25.464844 9.519531 25.570312 C 9.664062 25.6875 9.800781 25.648438 9.871094 25.476562 C 9.964844 25.253906 9.726562 25.035156 9.507812 25.144531 Z M 9.507812 25.144531 "/>
<path style=" stroke:none;fill-rule:nonzero;fill:rgb(94.901961%,43.137255%,34.901961%);fill-opacity:1;" d="M 22.664062 25.90625 C 22.324219 25.949219 22.1875 26.039062 22.308594 26.132812 C 22.34375 26.164062 22.40625 26.183594 22.460938 26.183594 C 22.636719 26.183594 22.746094 26.230469 22.875 26.367188 C 22.984375 26.484375 23 26.496094 23.058594 26.46875 C 23.15625 26.425781 23.265625 26.171875 23.257812 26.023438 C 23.25 25.921875 22.96875 25.863281 22.664062 25.90625 Z M 22.664062 25.90625 "/>
<path style=" stroke:none;fill-rule:nonzero;fill:rgb(94.901961%,43.137255%,34.901961%);fill-opacity:1;" d="M 3.824219 26.300781 C 3.753906 26.390625 3.753906 26.546875 3.824219 26.722656 C 3.90625 26.9375 3.9375 26.953125 3.972656 26.796875 C 3.984375 26.722656 4 26.589844 4 26.5 C 4 26.242188 3.929688 26.164062 3.824219 26.300781 Z M 3.824219 26.300781 "/>
<path style=" stroke:none;fill-rule:nonzero;fill:rgb(94.901961%,43.137255%,34.901961%);fill-opacity:1;" d="M 6.648438 26.328125 C 6.5625 26.359375 6.453125 26.492188 6.207031 26.855469 C 5.800781 27.464844 5.765625 27.574219 5.855469 28.007812 C 5.917969 28.316406 5.976562 28.460938 6.078125 28.558594 C 6.203125 28.6875 6.320312 28.605469 6.371094 28.339844 C 6.410156 28.136719 6.378906 28.101562 6.109375 28.082031 L 5.90625 28.0625 L 6.054688 27.992188 C 6.304688 27.871094 6.320312 27.835938 6.277344 27.464844 C 6.265625 27.351562 6.269531 27.28125 6.285156 27.269531 C 6.296875 27.261719 6.386719 27.292969 6.484375 27.34375 C 6.675781 27.441406 6.796875 27.449219 6.914062 27.371094 C 7.035156 27.289062 7.066406 27.210938 7.039062 27.070312 C 7.023438 26.996094 7.023438 26.945312 7.039062 26.945312 C 7.085938 26.945312 7.460938 27.304688 7.96875 27.839844 C 8.652344 28.554688 9.027344 28.984375 9.109375 29.148438 C 9.144531 29.21875 9.273438 29.414062 9.394531 29.582031 C 9.816406 30.160156 9.957031 30.398438 9.957031 30.53125 C 9.957031 30.59375 9.972656 30.609375 10.03125 30.621094 C 10.113281 30.640625 10.15625 30.695312 10.339844 31.042969 C 10.40625 31.160156 10.476562 31.273438 10.507812 31.292969 C 10.554688 31.324219 10.570312 31.324219 10.632812 31.273438 C 10.726562 31.199219 10.78125 31.066406 10.75 30.984375 C 10.71875 30.90625 10.628906 30.84375 10.542969 30.84375 C 10.507812 30.84375 10.464844 30.832031 10.449219 30.8125 C 10.371094 30.738281 10.445312 30.539062 10.574219 30.472656 C 10.644531 30.433594 10.65625 30.4375 10.785156 30.496094 C 10.953125 30.578125 11.210938 30.839844 11.339844 31.050781 C 11.445312 31.226562 11.453125 31.269531 11.394531 31.382812 C 11.355469 31.460938 11.355469 31.464844 11.414062 31.511719 C 11.457031 31.550781 11.5 31.558594 11.585938 31.550781 C 11.75 31.53125 11.8125 31.5625 11.871094 31.695312 C 11.953125 31.882812 12 31.898438 12.4375 31.910156 C 12.851562 31.917969 13.007812 31.90625 13.082031 31.851562 C 13.128906 31.816406 13.128906 31.8125 13.082031 31.761719 C 13.054688 31.734375 12.957031 31.667969 12.863281 31.609375 C 12.671875 31.496094 12.355469 31.234375 11.808594 30.742188 C 11.386719 30.363281 11.269531 30.253906 9.929688 28.980469 C 7.71875 26.882812 7.128906 26.390625 6.761719 26.328125 C 6.722656 26.320312 6.667969 26.320312 6.648438 26.328125 Z M 6.648438 26.328125 "/>
<path style=" stroke:none;fill-rule:nonzero;fill:rgb(94.901961%,43.137255%,34.901961%);fill-opacity:1;" d="M 0.917969 26.449219 C 0.878906 26.492188 0.855469 26.550781 0.84375 26.636719 C 0.835938 26.753906 0.839844 26.773438 0.910156 26.84375 C 1.007812 26.9375 1.050781 26.941406 1.132812 26.859375 C 1.21875 26.773438 1.21875 26.609375 1.136719 26.484375 C 1.066406 26.375 0.996094 26.367188 0.917969 26.449219 Z M 0.917969 26.449219 "/>
<path style=" stroke:none;fill-rule:nonzero;fill:rgb(94.901961%,43.137255%,34.901961%);fill-opacity:1;" d="M 5.265625 26.632812 C 5.207031 26.691406 5.273438 27.222656 5.355469 27.320312 C 5.394531 27.371094 5.445312 27.363281 5.464844 27.300781 C 5.476562 27.253906 5.433594 26.957031 5.375 26.703125 C 5.363281 26.632812 5.304688 26.59375 5.265625 26.632812 Z M 5.265625 26.632812 "/>
<path style=" stroke:none;fill-rule:nonzero;fill:rgb(94.901961%,43.137255%,34.901961%);fill-opacity:1;" d="M 20.351562 26.675781 C 20.203125 26.726562 20.050781 26.847656 19.664062 27.207031 C 19.464844 27.390625 19.253906 27.582031 19.203125 27.628906 C 19.136719 27.683594 19.101562 27.738281 19.101562 27.773438 C 19.101562 27.917969 19.867188 31.441406 19.921875 31.542969 C 19.96875 31.636719 20.027344 31.683594 20.085938 31.683594 C 20.117188 31.683594 20.25 31.652344 20.378906 31.609375 C 20.894531 31.441406 21.304688 30.992188 22.410156 29.390625 C 22.636719 29.0625 22.875 28.742188 22.941406 28.679688 L 23.0625 28.570312 L 23.285156 28.585938 C 23.5625 28.605469 23.652344 28.574219 23.914062 28.34375 C 24.234375 28.0625 24.359375 27.964844 24.457031 27.910156 C 24.511719 27.882812 24.558594 27.839844 24.566406 27.800781 C 24.585938 27.726562 24.523438 27.464844 24.449219 27.324219 C 24.367188 27.164062 24.15625 26.957031 23.996094 26.878906 C 23.871094 26.816406 23.820312 26.808594 23.621094 26.808594 C 23.425781 26.808594 23.375 26.816406 23.25 26.878906 C 23.058594 26.972656 22.882812 27.128906 22.90625 27.183594 C 22.925781 27.238281 23.039062 27.238281 23.226562 27.1875 C 23.304688 27.167969 23.382812 27.152344 23.402344 27.152344 C 23.421875 27.152344 23.335938 27.261719 23.214844 27.390625 C 22.984375 27.652344 22.882812 27.8125 22.941406 27.832031 C 23.023438 27.859375 23.109375 27.957031 23.09375 28.003906 C 23.078125 28.039062 23.058594 28.042969 22.992188 28.027344 C 22.839844 27.996094 22.832031 28 22.839844 28.082031 C 22.847656 28.121094 22.851562 28.175781 22.855469 28.203125 C 22.863281 28.273438 22.789062 28.3125 22.703125 28.285156 C 22.523438 28.21875 22.464844 27.988281 22.464844 27.386719 C 22.464844 27.144531 22.457031 26.945312 22.445312 26.945312 C 22.433594 26.945312 21.984375 26.878906 21.445312 26.792969 C 20.90625 26.710938 20.460938 26.640625 20.453125 26.640625 C 20.445312 26.644531 20.398438 26.660156 20.351562 26.675781 Z M 21.039062 27.429688 C 21.066406 27.445312 21.089844 27.476562 21.089844 27.496094 C 21.089844 27.53125 21.109375 27.53125 21.191406 27.519531 C 21.28125 27.503906 21.292969 27.507812 21.292969 27.554688 C 21.292969 27.628906 21.367188 27.660156 21.5625 27.660156 C 21.769531 27.660156 21.910156 27.699219 21.992188 27.78125 C 22.078125 27.867188 22.070312 27.917969 21.953125 28.054688 C 21.898438 28.117188 21.851562 28.1875 21.851562 28.203125 C 21.851562 28.226562 21.917969 28.292969 21.992188 28.359375 C 22.070312 28.425781 22.132812 28.496094 22.132812 28.511719 C 22.132812 28.53125 22.058594 28.621094 21.96875 28.710938 C 21.835938 28.847656 21.800781 28.898438 21.765625 29.023438 C 21.707031 29.222656 21.648438 29.332031 21.53125 29.472656 C 21.480469 29.53125 21.402344 29.664062 21.355469 29.761719 C 21.300781 29.886719 21.253906 29.949219 21.207031 29.972656 C 21.089844 30.023438 20.988281 29.9375 20.988281 29.785156 C 20.988281 29.675781 20.941406 29.617188 20.863281 29.625 L 20.796875 29.632812 L 20.78125 29.40625 C 20.765625 29.164062 20.703125 28.980469 20.617188 28.90625 C 20.585938 28.882812 20.527344 28.871094 20.433594 28.875 C 20.359375 28.878906 20.300781 28.875 20.300781 28.867188 C 20.300781 28.859375 20.328125 28.816406 20.363281 28.769531 C 20.445312 28.664062 20.445312 28.636719 20.355469 28.648438 C 20.269531 28.660156 20.171875 28.5625 20.082031 28.359375 C 20.003906 28.199219 20 28.09375 20.070312 28.09375 C 20.140625 28.09375 20.132812 28.058594 20.058594 28.007812 C 19.949219 27.933594 19.976562 27.90625 20.140625 27.921875 C 20.335938 27.941406 20.375 27.960938 20.375 28.027344 C 20.375 28.058594 20.40625 28.109375 20.441406 28.144531 C 20.496094 28.199219 20.503906 28.222656 20.492188 28.300781 C 20.476562 28.417969 20.503906 28.425781 20.578125 28.328125 C 20.628906 28.265625 20.632812 28.242188 20.613281 27.976562 C 20.601562 27.714844 20.601562 27.679688 20.652344 27.574219 C 20.683594 27.515625 20.730469 27.449219 20.765625 27.4375 C 20.839844 27.398438 20.976562 27.398438 21.039062 27.429688 Z M 21.039062 27.429688 "/>
<path style=" stroke:none;fill-rule:nonzero;fill:rgb(94.901961%,43.137255%,34.901961%);fill-opacity:1;" d="M 27.039062 27.003906 C 27.03125 27.035156 27.011719 27.136719 27 27.226562 C 26.964844 27.4375 26.917969 27.484375 26.738281 27.5 C 26.367188 27.527344 26.085938 27.558594 26.046875 27.574219 C 25.996094 27.589844 25.992188 27.648438 26.039062 27.679688 C 26.054688 27.6875 26.234375 27.703125 26.441406 27.710938 C 26.65625 27.71875 26.828125 27.738281 26.84375 27.75 C 26.898438 27.804688 26.800781 27.839844 26.519531 27.878906 C 26.363281 27.898438 26.160156 27.941406 26.066406 27.96875 C 25.953125 28.007812 25.824219 28.027344 25.707031 28.027344 C 25.546875 28.027344 25.511719 28.023438 25.464844 27.972656 L 25.410156 27.914062 L 25.503906 27.816406 C 25.5625 27.757812 25.597656 27.699219 25.597656 27.65625 C 25.597656 27.585938 25.390625 27.144531 25.34375 27.113281 C 25.324219 27.101562 25.316406 27.179688 25.316406 27.375 C 25.316406 27.898438 25.167969 28.160156 24.851562 28.1875 C 24.59375 28.207031 24.539062 28.238281 24.675781 28.292969 C 24.785156 28.335938 24.960938 28.371094 25.332031 28.414062 C 25.71875 28.457031 25.863281 28.496094 25.863281 28.546875 C 25.863281 28.644531 25.546875 28.730469 25.023438 28.78125 C 24.855469 28.796875 24.632812 28.820312 24.53125 28.832031 C 24.238281 28.863281 24.191406 28.960938 24.417969 29.074219 C 24.625 29.179688 24.683594 29.273438 24.683594 29.507812 C 24.683594 29.691406 24.648438 29.769531 24.5 29.929688 C 24.445312 29.992188 24.390625 30.070312 24.382812 30.105469 C 24.347656 30.277344 24.265625 30.480469 23.976562 31.132812 C 23.804688 31.527344 23.667969 31.851562 23.667969 31.855469 C 23.703125 31.890625 24.03125 31.914062 24.472656 31.914062 L 25 31.914062 L 25.210938 31.421875 C 25.480469 30.816406 25.605469 30.496094 25.789062 29.96875 C 25.871094 29.742188 25.964844 29.5 25.996094 29.429688 C 26.191406 29.042969 26.464844 28.769531 26.828125 28.589844 C 27.109375 28.453125 27.324219 28.296875 27.472656 28.121094 C 27.628906 27.933594 27.671875 27.828125 27.679688 27.589844 C 27.691406 27.328125 27.65625 27.253906 27.511719 27.253906 C 27.398438 27.253906 27.3125 27.195312 27.1875 27.054688 C 27.085938 26.929688 27.054688 26.925781 27.039062 27.003906 Z M 27.039062 27.003906 "/>
<path style=" stroke:none;fill-rule:nonzero;fill:rgb(94.901961%,43.137255%,34.901961%);fill-opacity:1;" d="M 1.429688 27.15625 C 1.34375 27.25 1.234375 27.515625 1.074219 28.039062 C 0.832031 28.796875 0.808594 28.960938 0.925781 29.058594 C 1.003906 29.121094 1.078125 29.082031 1.125 28.949219 C 1.226562 28.664062 1.503906 28.523438 1.691406 28.660156 C 1.734375 28.695312 1.722656 28.695312 1.578125 28.695312 C 1.417969 28.691406 1.414062 28.695312 1.414062 28.753906 C 1.414062 28.863281 1.550781 28.914062 1.78125 28.894531 C 1.964844 28.878906 1.976562 28.878906 2.039062 28.945312 C 2.089844 29.003906 2.113281 29.011719 2.191406 28.996094 C 2.285156 28.980469 2.285156 28.980469 2.300781 29.089844 C 2.316406 29.160156 2.347656 29.222656 2.40625 29.28125 C 2.519531 29.394531 2.648438 29.398438 2.796875 29.292969 C 2.996094 29.148438 2.976562 29.089844 2.550781 28.632812 C 2.097656 28.140625 1.957031 27.9375 1.753906 27.472656 C 1.644531 27.222656 1.5625 27.097656 1.503906 27.097656 C 1.496094 27.097656 1.460938 27.125 1.429688 27.15625 Z M 1.429688 27.15625 "/>
<path style=" stroke:none;fill-rule:nonzero;fill:rgb(94.901961%,43.137255%,34.901961%);fill-opacity:1;" d="M 0.238281 28.707031 C 0.203125 28.75 0.191406 28.796875 0.195312 28.957031 C 0.195312 29.195312 0.253906 29.363281 0.542969 29.964844 C 0.722656 30.335938 0.75 30.417969 0.753906 30.542969 C 0.757812 30.636719 0.773438 30.714844 0.800781 30.757812 C 1.074219 31.175781 1.882812 31.777344 2.316406 31.886719 C 2.382812 31.902344 2.558594 31.914062 2.710938 31.910156 L 2.992188 31.902344 L 2.679688 31.742188 C 2.195312 31.5 1.878906 31.25 1.546875 30.847656 C 1.203125 30.441406 0.96875 30.015625 0.816406 29.53125 C 0.746094 29.320312 0.714844 29.257812 0.628906 29.179688 C 0.539062 29.09375 0.523438 29.058594 0.507812 28.9375 C 0.472656 28.703125 0.347656 28.589844 0.238281 28.707031 Z M 0.238281 28.707031 "/>
<path style=" stroke:none;fill-rule:nonzero;fill:rgb(94.901961%,43.137255%,34.901961%);fill-opacity:1;" d="M 3.144531 29.199219 C 3.101562 29.230469 3.101562 29.242188 3.128906 29.304688 C 3.148438 29.347656 3.207031 29.433594 3.261719 29.507812 C 3.394531 29.683594 3.5 29.90625 3.621094 30.261719 C 3.75 30.660156 3.808594 30.785156 3.898438 30.847656 C 3.957031 30.890625 3.964844 30.910156 3.945312 30.949219 C 3.910156 31.015625 3.933594 31.074219 3.996094 31.074219 C 4.058594 31.074219 4.074219 31.09375 4.109375 31.246094 C 4.132812 31.347656 4.148438 31.367188 4.203125 31.367188 C 4.257812 31.367188 4.269531 31.351562 4.273438 31.285156 C 4.277344 31.242188 4.261719 31.117188 4.242188 31.011719 C 4.21875 30.90625 4.203125 30.753906 4.203125 30.671875 C 4.203125 30.589844 4.183594 30.460938 4.164062 30.386719 C 4.089844 30.117188 4.085938 30.085938 4.152344 30.054688 C 4.25 30 4.425781 30.035156 4.519531 30.128906 C 4.609375 30.214844 4.636719 30.226562 4.636719 30.167969 C 4.636719 30.09375 4.738281 30.074219 5.070312 30.085938 C 5.429688 30.09375 5.476562 30.113281 5.429688 30.21875 C 5.394531 30.296875 5.417969 30.316406 5.617188 30.355469 C 5.699219 30.371094 5.796875 30.394531 5.832031 30.402344 L 5.894531 30.417969 L 5.835938 30.355469 C 5.765625 30.273438 5.785156 30.222656 5.914062 30.167969 C 6.046875 30.117188 6.371094 30.074219 6.496094 30.09375 C 6.621094 30.113281 6.625 30.164062 6.519531 30.296875 C 6.480469 30.347656 6.449219 30.402344 6.457031 30.410156 C 6.460938 30.421875 6.542969 30.410156 6.632812 30.390625 C 6.785156 30.355469 6.800781 30.355469 6.863281 30.394531 C 6.921875 30.433594 6.929688 30.453125 6.921875 30.527344 C 6.914062 30.578125 6.882812 30.640625 6.859375 30.675781 C 6.832031 30.707031 6.78125 30.777344 6.742188 30.824219 C 6.660156 30.929688 6.667969 30.972656 6.773438 30.972656 C 6.871094 30.972656 6.9375 30.914062 6.921875 30.847656 C 6.890625 30.726562 7.117188 30.71875 7.207031 30.839844 C 7.277344 30.925781 7.273438 30.96875 7.179688 31.105469 C 7.136719 31.171875 7.109375 31.234375 7.117188 31.25 C 7.136719 31.28125 7.382812 31.285156 7.433594 31.253906 C 7.457031 31.238281 7.460938 31.207031 7.449219 31.148438 C 7.433594 31.074219 7.4375 31.066406 7.476562 31.082031 C 7.527344 31.101562 7.777344 31.164062 7.902344 31.1875 C 7.964844 31.199219 7.988281 31.230469 8.050781 31.367188 C 8.132812 31.546875 8.230469 31.632812 8.300781 31.589844 C 8.382812 31.535156 8.359375 31.464844 8.183594 31.242188 C 8.089844 31.125 7.832031 30.835938 7.613281 30.597656 C 7.394531 30.363281 7.109375 30.046875 6.980469 29.894531 C 6.832031 29.71875 6.71875 29.613281 6.679688 29.601562 C 6.640625 29.59375 6.542969 29.605469 6.457031 29.628906 C 5.867188 29.792969 5.816406 29.804688 5.472656 29.816406 C 4.859375 29.84375 4.316406 29.707031 3.597656 29.355469 C 3.378906 29.25 3.203125 29.164062 3.199219 29.164062 C 3.195312 29.164062 3.171875 29.179688 3.144531 29.199219 Z M 3.144531 29.199219 "/>
<path style=" stroke:none;fill-rule:nonzero;fill:rgb(94.901961%,43.137255%,34.901961%);fill-opacity:1;" d="M 23.953125 29.363281 C 23.828125 29.441406 23.644531 29.652344 23.089844 30.371094 C 22.441406 31.207031 22.136719 31.578125 22.011719 31.679688 C 21.945312 31.730469 21.925781 31.765625 21.9375 31.796875 C 21.964844 31.863281 22.117188 31.914062 22.316406 31.914062 C 22.570312 31.914062 22.65625 31.867188 22.753906 31.679688 C 22.792969 31.597656 22.890625 31.460938 22.964844 31.375 C 23.125 31.199219 23.152344 31.136719 23.148438 30.992188 C 23.144531 30.882812 23.160156 30.859375 23.335938 30.738281 C 23.375 30.710938 23.410156 30.648438 23.429688 30.578125 C 23.453125 30.480469 23.46875 30.460938 23.546875 30.4375 C 23.660156 30.398438 23.777344 30.238281 23.929688 29.917969 C 24.046875 29.664062 24.113281 29.433594 24.085938 29.359375 C 24.066406 29.304688 24.046875 29.304688 23.953125 29.363281 Z M 23.953125 29.363281 "/>
</g>
</svg>
