<?xml version="1.0" standalone="no"?>
<!DOCTYPE svg PUBLIC "-//W3C//DTD SVG 20010904//EN"
 "http://www.w3.org/TR/2001/REC-SVG-20010904/DTD/svg10.dtd">
<svg version="1.0" xmlns="http://www.w3.org/2000/svg"
 width="1250.000000pt" height="1250.000000pt" viewBox="0 0 1250.000000 1250.000000"
 preserveAspectRatio="xMidYMid meet">

<g transform="translate(0.000000,1250.000000) scale(0.100000,-0.100000)"
fill="#000000" stroke="none">
<path d="M7746 12000 c-14 -17 -44 -69 -68 -116 -55 -112 -58 -156 -22 -349
27 -140 29 -167 29 -415 0 -173 -5 -296 -14 -355 -51 -341 -137 -605 -281
-864 -108 -197 -131 -269 -91 -291 32 -17 60 -12 176 29 61 22 155 55 210 75
319 112 731 120 1126 21 155 -39 294 -91 454 -169 278 -135 459 -273 685 -519
77 -85 159 -169 181 -187 38 -30 42 -31 57 -16 27 27 29 194 3 296 -20 80 -21
82 -128 198 -431 470 -1817 2125 -2122 2535 -128 172 -147 184 -195 127z m139
-420 c14 -22 81 -109 149 -193 68 -84 217 -274 331 -422 297 -388 392 -509
463 -594 85 -102 90 -114 67 -154 -34 -58 -128 -168 -156 -183 -37 -18 -52
-18 -72 4 -19 20 -797 1381 -797 1392 0 5 -18 43 -41 84 -33 62 -39 79 -29 91
23 28 58 18 85 -25z m288 -1038 c55 -53 117 -214 97 -252 -9 -18 -21 -20 -95
-20 -88 0 -180 25 -219 59 -29 25 -16 89 30 158 67 97 125 114 187 55z"/>
<path d="M7609 9470 c-128 -23 -249 -66 -322 -114 -64 -43 -189 -171 -308
-316 -125 -153 -304 -392 -367 -490 -94 -147 -103 -158 -140 -183 -23 -15 -58
-27 -91 -31 -85 -9 -89 -17 -57 -128 14 -51 51 -196 81 -323 67 -276 72 -295
91 -295 8 0 64 23 124 50 135 62 209 80 325 80 200 0 383 -83 528 -240 194
-209 261 -506 183 -813 -43 -167 -108 -266 -208 -316 -116 -58 -264 -38 -430
58 -81 47 -238 161 -238 173 0 5 20 44 45 86 58 98 85 185 85 271 0 234 -157
433 -361 457 -74 8 -183 -11 -256 -45 -64 -30 -107 -80 -156 -176 -40 -81 -47
-120 -57 -325 -5 -107 -13 -208 -18 -225 -11 -39 -43 -41 -54 -2 -5 15 -11 39
-16 54 -10 38 -39 42 -52 8 -13 -34 -29 -226 -31 -365 -2 -124 -9 -165 -29
-165 -21 0 -39 59 -39 126 -1 88 -12 150 -28 156 -8 3 -46 -9 -83 -27 -81 -39
-100 -36 -100 17 0 71 -25 77 -77 21 -63 -67 -49 -314 24 -420 20 -29 24 -45
19 -70 -8 -42 -33 -68 -66 -68 -34 0 -61 46 -90 155 -26 96 -41 122 -84 140
-45 19 -92 5 -136 -40 -35 -36 -35 -37 -34 -123 2 -97 24 -215 51 -271 25 -50
66 -55 91 -12 19 34 61 51 128 51 68 0 153 50 235 138 127 137 140 145 222
147 92 1 117 14 117 61 0 65 41 117 120 153 60 27 111 26 200 -4 99 -34 152
-33 179 1 11 14 23 34 26 45 5 14 16 19 42 19 28 0 43 -8 72 -38 20 -20 44
-52 53 -70 30 -57 88 -75 258 -81 116 -5 151 -10 173 -24 37 -24 34 -52 -11
-97 -69 -70 -258 -105 -499 -94 -149 7 -178 16 -229 72 -45 48 -62 50 -88 10
-44 -67 -66 -243 -75 -608 -7 -286 -13 -330 -45 -330 -18 0 -36 52 -36 105 0
64 -26 197 -60 315 -80 269 -91 300 -106 300 -8 0 -17 -7 -20 -15 -15 -38 44
-633 72 -725 17 -59 47 -100 73 -100 9 0 40 11 69 25 71 33 79 32 74 -7 -3
-25 4 -43 27 -73 17 -22 45 -58 61 -79 19 -25 28 -46 25 -57 -6 -19 1 -22 79
-33 58 -8 73 -27 78 -99 3 -47 15 -85 48 -157 39 -84 45 -103 44 -163 l0 -67
32 6 c40 7 69 -8 89 -46 27 -52 20 -89 -25 -131 -22 -21 -58 -43 -80 -49 -25
-7 -71 -38 -127 -86 -95 -82 -185 -143 -314 -214 -46 -25 -114 -75 -155 -113
-41 -38 -74 -67 -74 -64 0 2 18 43 40 90 41 87 51 137 27 137 -15 0 -91 -52
-102 -69 -3 -6 -24 -20 -45 -31 -37 -19 -40 -19 -49 -2 -30 57 -43 392 -16
428 16 22 19 88 5 154 -5 25 -14 124 -19 220 -12 208 -22 263 -68 350 -31 58
-34 71 -29 117 7 57 1 83 -19 83 -23 0 -29 -76 -27 -350 1 -387 25 -688 58
-753 35 -66 26 -245 -17 -328 -10 -21 -35 -51 -54 -66 -19 -15 -35 -31 -35
-34 0 -4 23 -9 51 -11 79 -8 87 -43 18 -78 -52 -27 -117 -26 -160 3 -38 25
-89 105 -119 185 -32 85 -70 288 -77 409 -6 111 -6 111 21 136 14 13 26 27 26
30 0 3 -14 28 -31 55 -40 66 -64 157 -90 355 -11 89 -30 205 -40 257 -56 268
-82 413 -114 628 -57 378 -94 542 -130 578 -8 9 -15 23 -15 33 0 60 160 219
555 551 154 129 322 276 373 326 80 78 93 96 90 120 -6 52 -58 53 -368 9 -184
-27 -292 -48 -362 -71 -102 -33 -37 -49 147 -36 72 6 131 9 132 8 1 -1 -75
-35 -170 -75 -253 -108 -483 -224 -561 -282 -161 -123 -197 -251 -135 -493 11
-45 56 -189 99 -321 43 -132 106 -332 139 -445 33 -113 80 -261 104 -330 71
-200 105 -377 132 -700 41 -481 103 -768 223 -1023 109 -232 350 -538 462
-586 116 -50 417 -112 690 -142 151 -16 396 -17 443 -1 128 45 -96 184 -398
247 -44 9 -147 21 -230 26 -225 15 -345 46 -438 112 -63 45 -89 81 -94 130 -5
54 22 99 83 135 104 62 294 184 442 283 86 58 256 166 377 239 229 138 344
213 406 263 28 22 53 31 105 37 149 19 777 32 1249 26 711 -9 873 -24 969 -88
84 -55 154 -161 380 -573 76 -137 149 -265 162 -282 64 -84 94 -60 152 122 91
284 121 466 129 772 9 332 -18 560 -93 803 -50 162 -99 255 -185 360 -48 58
-79 125 -79 174 0 31 7 45 38 76 52 52 116 69 297 80 166 10 212 20 251 54 22
19 25 26 16 43 -16 29 -49 33 -268 33 -198 0 -338 -13 -363 -33 -22 -18 -81
-152 -156 -352 -209 -555 -354 -805 -468 -805 -21 0 -41 12 -70 40 -39 40 -40
41 -33 95 8 73 59 213 208 570 156 374 176 433 159 478 -12 31 -50 43 -151 51
-125 8 -332 70 -600 178 -157 63 -386 179 -422 213 -39 36 -36 73 7 130 57 75
129 203 255 460 269 546 358 795 389 1087 54 489 -105 992 -417 1319 -116 122
-231 207 -387 284 -214 107 -343 126 -576 85z m342 -299 c178 -48 361 -151
457 -256 218 -238 341 -688 302 -1106 -16 -174 -55 -356 -120 -552 -113 -346
-217 -558 -386 -792 -83 -114 -118 -170 -121 -196 -7 -49 27 -112 77 -144 22
-14 40 -30 40 -37 0 -6 -34 -46 -75 -89 -79 -80 -105 -126 -105 -181 0 -60 29
-89 161 -165 68 -39 174 -100 235 -135 138 -80 299 -144 416 -168 132 -26 132
-27 70 -157 -53 -112 -72 -169 -72 -215 0 -15 -11 -40 -24 -55 -21 -24 -31
-28 -75 -26 -104 3 -271 104 -412 250 -93 96 -158 192 -204 302 -42 102 -86
176 -141 239 -37 42 -43 45 -58 33 -19 -16 -60 -82 -75 -122 -19 -51 95 -325
205 -492 58 -87 187 -218 269 -274 67 -45 258 -136 320 -152 22 -6 85 -20 140
-31 169 -34 175 -41 131 -129 -24 -46 -34 -54 -101 -76 -11 -3 -128 -10 -260
-15 -490 -19 -676 -35 -910 -81 -197 -38 -313 -72 -406 -120 -93 -48 -145 -51
-221 -13 -108 55 -250 223 -288 341 -23 71 -50 115 -108 172 -37 37 -71 103
-72 138 0 35 -34 103 -96 193 -86 127 -98 163 -98 295 1 98 7 131 50 300 l50
190 239 -3 c210 -3 252 -1 334 17 67 14 101 27 120 44 14 14 44 30 66 37 103
31 218 114 351 251 171 177 258 373 284 639 37 365 -103 684 -394 901 -45 33
-96 74 -114 90 -18 16 -61 43 -95 60 -137 70 -506 282 -564 326 -59 43 -51 53
119 153 104 61 143 102 174 183 110 292 322 539 525 613 136 49 314 55 460 15z
m-1422 -2292 c19 -26 36 -68 47 -117 19 -89 27 -107 61 -144 35 -37 25 -71
-33 -108 -61 -38 -132 -54 -215 -47 -180 15 -196 97 -49 262 73 82 120 148
120 168 0 41 34 35 69 -14z"/>
<path d="M10260 8775 c-20 -24 0 -92 71 -245 77 -167 121 -288 159 -439 112
-446 103 -880 -29 -1346 -48 -168 -130 -408 -180 -525 l-36 -85 -74 -3 c-85
-3 -127 -21 -142 -60 -18 -47 45 -268 87 -303 22 -18 59 -14 93 10 76 54 294
453 378 692 164 464 206 990 117 1453 -43 218 -109 397 -212 569 -66 109 -108
194 -116 236 -3 19 -11 40 -17 48 -16 18 -83 17 -99 -2z"/>
<path d="M5026 6955 c-132 -50 -186 -78 -330 -173 -136 -90 -225 -125 -491
-192 -434 -110 -884 -285 -1396 -541 -391 -195 -664 -367 -812 -510 -51 -49
-192 -166 -313 -260 -436 -342 -579 -487 -689 -700 -26 -50 -45 -92 -43 -94 1
-2 80 67 173 152 283 257 411 354 607 458 192 101 405 173 633 212 157 27 491
24 658 -6 447 -79 818 -266 1131 -570 321 -313 514 -694 570 -1129 19 -148 20
-297 5 -487 -18 -208 -15 -218 90 -334 141 -155 398 -452 856 -986 478 -558
525 -612 703 -808 126 -137 215 -217 244 -217 9 0 28 17 44 37 44 58 230 269
410 463 263 286 344 379 344 398 0 27 -87 443 -112 537 -43 162 -90 244 -154
271 -30 13 -45 11 -176 -21 -222 -55 -395 -77 -598 -78 -102 0 -202 5 -239 12
-67 13 -161 54 -161 71 0 17 -42 32 -114 41 -95 12 -163 48 -259 139 -263 247
-503 732 -583 1175 -8 44 -19 177 -24 296 -15 334 -57 657 -104 789 -44 123
-95 235 -113 248 -13 10 -40 13 -98 9 -65 -4 -124 -19 -311 -81 -127 -42 -236
-76 -242 -76 -7 0 -85 55 -175 123 -261 197 -345 242 -483 258 -99 11 -203 43
-302 93 -98 50 -149 90 -183 146 -35 56 -56 72 -87 63 -15 -4 -22 -1 -22 9 0
27 76 132 129 180 52 47 81 55 61 18 -15 -27 -12 -40 8 -40 26 0 83 38 89 60
6 24 74 52 203 83 58 14 143 39 190 56 87 31 106 31 91 3 -19 -38 14 -72 70
-72 39 0 65 20 55 45 -3 8 -14 15 -25 15 -11 0 -23 4 -26 10 -23 37 106 129
360 254 116 58 235 123 265 145 40 31 62 41 85 39 36 -2 95 30 172 94 208 174
265 214 400 283 98 49 153 92 153 119 0 9 -3 16 -7 16 -5 -1 -61 -21 -127 -45z
m-202 -2121 c3 -9 11 -84 16 -168 23 -346 32 -455 45 -531 8 -44 11 -83 6 -88
-15 -15 -62 16 -81 53 -28 55 -43 154 -35 241 4 43 4 91 0 108 -5 26 -11 30
-43 33 -32 3 -37 7 -40 31 -2 18 5 38 23 58 23 28 24 34 12 53 -21 31 -38 30
-87 -3 -25 -17 -48 -31 -52 -31 -4 0 2 26 12 58 10 31 22 73 27 92 9 33 11 35
49 32 35 -3 46 2 84 37 51 45 55 47 64 25z m750 -2283 c9 -10 21 -42 25 -71 5
-29 15 -56 22 -61 8 -5 43 -9 80 -9 69 0 89 -10 89 -45 0 -30 -55 -137 -85
-165 l-25 -23 0 30 c0 41 -23 58 -77 55 l-45 -2 26 21 c14 11 31 29 37 40 15
29 -7 52 -41 46 -35 -7 -48 3 -60 44 -11 38 -13 119 -4 143 8 22 37 20 58 -3z
m1581 -442 c31 -101 33 -133 5 -124 -28 9 -48 -35 -31 -71 10 -22 16 -25 41
-19 27 6 30 4 30 -20 0 -33 -24 -81 -45 -89 -9 -3 -27 -6 -40 -6 -15 0 -31
-10 -42 -26 -35 -51 -72 -84 -95 -84 -33 0 -48 -13 -54 -46 -7 -40 -64 -106
-152 -176 -97 -77 -159 -108 -217 -108 -25 0 -45 3 -45 8 0 4 18 30 41 57 46
55 83 124 93 171 16 72 -61 61 -130 -19 -31 -37 -34 -39 -32 -17 3 22 -1 25
-32 25 -54 0 -141 57 -255 170 -102 99 -127 137 -106 158 12 12 51 -17 51 -38
0 -19 30 -27 46 -14 27 22 -14 96 -68 122 -31 15 -33 15 -66 -14 -20 -18 -43
-29 -55 -27 -19 3 -22 9 -22 56 0 57 -7 66 -104 140 -53 40 -37 64 51 77 26 4
59 4 74 1 21 -6 25 -11 20 -31 -15 -60 100 -54 190 10 l49 35 23 -30 c31 -40
74 -50 256 -60 166 -9 201 -17 257 -56 47 -32 168 -43 239 -22 l45 14 -3 61
c-1 33 2 73 8 89 l12 29 19 -23 c10 -13 30 -60 44 -103z"/>
<path d="M4330 5814 c-93 -18 -202 -64 -351 -150 -120 -70 -130 -93 -60 -143
30 -21 41 -19 41 9 0 24 29 46 72 54 25 5 45 17 60 37 62 84 83 99 135 99 41
0 61 -7 114 -41 81 -53 119 -69 163 -69 51 0 79 28 79 78 0 81 -55 123 -163
128 -36 1 -76 0 -90 -2z"/>
<path d="M3720 5493 c-48 -17 -52 -71 -7 -118 39 -44 94 -56 132 -31 76 50
-35 181 -125 149z"/>
<path d="M2965 4989 c-119 -14 -262 -52 -367 -98 -110 -48 -154 -80 -145 -104
5 -15 23 -17 124 -16 118 0 150 3 360 33 176 25 270 51 350 99 51 30 59 52 27
74 -32 21 -220 27 -349 12z"/>
<path d="M6126 4891 c-11 -18 7 -381 18 -381 23 0 131 209 151 293 11 43 -30
35 -54 -10 -6 -13 -16 -23 -21 -23 -5 0 -23 27 -40 59 -31 62 -45 78 -54 62z"/>
<path d="M1779 4670 c-140 -17 -311 -76 -443 -154 -206 -122 -352 -277 -485
-516 -23 -42 -64 -102 -91 -133 -57 -67 -66 -100 -64 -257 2 -174 44 -385 103
-513 50 -110 200 -296 334 -416 378 -335 848 -412 1257 -206 248 125 473 359
569 590 65 155 75 211 75 415 0 170 -2 193 -27 281 -99 358 -337 652 -652 804
-197 96 -375 128 -576 105z m262 -372 c16 -18 37 -43 48 -54 15 -18 29 -22 82
-22 122 -1 409 -104 409 -147 0 -15 -185 -194 -261 -252 -31 -24 -75 -53 -99
-66 -42 -22 -49 -33 -64 -97 -4 -17 -19 -31 -45 -43 -27 -12 -120 -101 -283
-270 -254 -264 -312 -332 -374 -438 -57 -98 -83 -128 -138 -160 -84 -48 -131
-36 -171 41 -21 41 -16 74 12 78 28 4 53 38 53 72 0 48 -27 63 -85 50 -86 -19
-103 13 -112 220 -6 155 9 332 33 368 18 27 16 81 -6 200 -13 65 -12 74 2 88
15 15 19 13 57 -27 l40 -44 33 32 c18 17 57 45 86 63 69 42 87 76 84 164 -2
84 7 102 55 111 45 8 63 21 63 45 0 53 73 44 140 -16 47 -42 98 -64 150 -64
46 0 46 14 0 24 -64 12 -101 83 -64 120 24 24 41 19 84 -24 31 -32 47 -40 75
-40 40 0 75 28 75 62 0 62 74 78 121 26z m528 -616 c19 -7 47 -12 62 -12 42 0
62 -45 67 -152 4 -82 3 -91 -28 -155 -34 -70 -35 -90 -14 -225 5 -30 3 -39
-12 -45 -9 -3 -82 4 -161 17 -79 12 -145 21 -147 19 -2 -2 5 -60 15 -129 33
-228 30 -236 -81 -265 -85 -22 -120 -41 -120 -66 0 -12 -10 -23 -26 -29 -32
-13 -181 -13 -189 -1 -3 5 8 19 25 31 37 26 39 43 4 30 -96 -37 -376 21 -330
67 4 4 20 2 35 -4 l29 -10 -5 58 c-7 70 19 159 76 264 30 56 45 74 77 88 73
35 166 143 189 220 l12 42 52 0 c53 1 71 12 71 46 0 56 161 118 238 91 33 -11
48 -5 54 23 4 19 12 22 53 14 31 -6 30 28 -4 83 l-31 49 27 -19 c16 -10 43
-24 62 -30z"/>
<path d="M3775 4595 c-318 -75 -613 -184 -703 -260 -57 -47 -30 -105 48 -105
45 0 200 36 410 94 91 26 239 62 330 81 91 20 175 41 188 47 43 22 22 48 -41
48 -50 0 -62 14 -62 67 0 48 0 48 -35 50 -19 1 -80 -9 -135 -22z"/>
<path d="M3574 3945 c-96 -14 -210 -48 -241 -70 -25 -18 -30 -54 -12 -87 6
-11 38 -53 70 -91 33 -39 58 -78 57 -86 -2 -11 -21 -18 -61 -23 -101 -13 -128
-46 -59 -75 92 -38 186 -47 527 -47 372 -1 448 9 514 62 49 40 48 49 -5 55
-25 2 -50 11 -55 18 -5 8 -6 40 -3 73 5 43 3 60 -6 66 -8 5 -62 6 -122 3 -71
-4 -108 -2 -108 4 0 16 22 31 53 37 15 3 38 8 51 11 15 3 28 16 34 35 7 18 19
31 34 34 75 15 79 17 76 33 -7 40 -187 63 -463 62 -110 -1 -236 -7 -281 -14z
m378 -147 c13 -11 14 -26 8 -86 -4 -40 -9 -75 -12 -78 -3 -3 -16 11 -28 30
-22 37 -44 46 -53 24 -6 -17 -33 16 -48 60 -16 47 0 62 65 62 29 0 59 -6 68
-12z"/>
<path d="M7545 3944 c-38 -19 -112 -91 -131 -126 -35 -67 -5 -140 78 -187 111
-64 236 -18 268 97 20 75 -34 168 -124 211 -51 25 -53 25 -91 5z"/>
<path d="M8191 3821 c-18 -12 -33 -87 -25 -129 11 -59 38 -104 91 -149 48 -40
65 -67 78 -126 4 -20 16 -33 41 -43 29 -12 35 -19 30 -37 -9 -36 28 -101 111
-189 116 -122 125 -147 52 -148 -85 0 -129 -137 -69 -213 58 -73 195 -23 214
78 l7 37 30 -47 c16 -26 84 -103 151 -171 71 -73 117 -129 112 -134 -5 -5 -28
-10 -52 -12 -23 -2 -43 -7 -43 -13 -1 -5 44 -26 99 -46 159 -56 215 -111 210
-204 -2 -49 -2 -50 34 -62 95 -31 623 -51 930 -34 220 12 321 26 339 47 30 37
-69 157 -166 203 -72 34 -127 86 -160 151 -97 192 -536 770 -583 770 -22 0
-12 -55 16 -97 108 -160 192 -290 277 -433 54 -91 122 -204 152 -251 29 -48
56 -100 59 -117 5 -27 3 -31 -22 -36 -16 -3 -171 -31 -344 -61 -173 -31 -323
-57 -333 -59 -24 -6 -42 25 -62 104 -22 88 -53 153 -109 227 -50 67 -125 123
-163 123 -54 0 -180 148 -413 490 -226 330 -336 476 -411 546 -39 36 -61 45
-78 35z"/>
<path d="M459 3778 c-35 -28 -138 -224 -184 -348 -24 -64 -29 -96 -34 -225 -7
-163 -14 -185 -86 -285 -48 -67 -62 -99 -90 -205 -51 -199 -65 -341 -65 -687
0 -281 2 -318 16 -333 16 -15 18 -15 38 5 20 20 21 31 22 248 1 226 1 228 37
374 55 225 125 453 167 547 56 125 107 327 160 640 25 148 40 188 75 201 22 8
26 15 23 42 -3 28 -7 33 -33 36 -16 2 -37 -3 -46 -10z"/>
<path d="M6590 3521 c-5 -11 -10 -29 -10 -41 0 -29 -18 -60 -35 -60 -41 0 -58
-66 -30 -119 36 -71 145 -48 190 40 18 33 20 102 4 132 -33 64 -96 89 -119 48z"/>
<path d="M6797 3353 c-14 -13 -7 -40 16 -60 114 -105 980 -362 1110 -329 34 8
50 39 41 78 -24 110 -340 268 -534 268 -30 0 -89 -9 -130 -20 -96 -25 -154
-25 -210 1 -31 15 -63 21 -102 20 -41 0 -71 6 -110 24 -56 26 -70 29 -81 18z"/>
<path d="M6720 3071 c0 -5 26 -25 58 -45 31 -19 84 -58 117 -86 34 -28 78 -55
100 -61 64 -18 83 -30 96 -61 25 -61 100 -91 115 -46 9 29 -38 70 -176 156
-181 113 -310 172 -310 143z"/>
<path d="M628 3013 c-32 -35 -74 -116 -89 -176 -10 -40 -8 -54 11 -109 16 -47
24 -101 30 -213 10 -178 26 -238 111 -437 133 -313 229 -460 410 -632 204
-194 447 -323 719 -382 119 -26 360 -26 490 0 52 10 99 23 105 28 16 14 -152
168 -237 216 -41 23 -124 63 -184 88 -325 134 -743 456 -947 729 -79 106 -174
292 -218 425 -17 52 -48 172 -70 265 -51 217 -76 256 -131 198z"/>
<path d="M3157 2979 c-93 -13 -104 -19 -99 -63 3 -28 1 -36 -12 -36 -24 0 -35
-40 -25 -91 17 -88 13 -107 -26 -123 -29 -12 -35 -20 -35 -45 0 -45 14 -74 64
-130 25 -29 46 -57 46 -64 5 -177 58 -279 188 -364 32 -20 105 -85 164 -145
66 -65 113 -105 122 -102 9 3 19 -9 30 -36 22 -56 95 -131 196 -203 131 -92
169 -126 188 -165 12 -27 36 -48 86 -78 87 -52 99 -68 91 -116 -6 -35 -4 -39
22 -49 80 -32 103 -46 197 -123 55 -46 153 -120 216 -166 63 -46 152 -114 197
-152 73 -61 101 -90 177 -183 23 -28 28 -30 91 -28 74 3 107 -8 185 -61 67
-46 159 -74 285 -87 134 -13 232 -33 340 -70 68 -24 101 -30 138 -26 41 4 47
2 41 -12 -20 -50 -27 -49 237 -40 94 4 109 2 128 -15 11 -10 18 -23 15 -28 -6
-9 -50 -5 -94 7 -8 3 -21 1 -29 -4 -12 -8 -12 -14 -2 -39 15 -35 63 -62 111
-62 25 0 41 -9 67 -38 34 -37 35 -37 121 -40 129 -5 127 -8 127 222 0 148 -3
188 -17 218 -35 79 -111 97 -326 78 -109 -10 -169 -10 -273 -1 -390 35 -908
181 -1180 334 -143 80 -653 543 -1283 1167 -351 348 -459 463 -454 488 5 27
74 65 264 145 245 104 349 129 674 162 160 16 325 40 354 51 24 9 20 -15 -15
-90 -17 -36 -29 -73 -27 -83 4 -22 59 -35 114 -28 150 20 104 207 -61 249 -69
18 -245 41 -425 57 -167 14 -807 20 -893 8z"/>
<path d="M7531 2814 c-64 -17 -130 -52 -145 -76 -27 -44 76 -272 163 -358 137
-137 340 -133 434 9 51 77 71 198 43 264 -55 131 -304 213 -495 161z"/>
<path d="M3703 2658 c-51 -25 -49 -126 4 -168 57 -45 111 -31 139 37 37 87
-57 173 -143 131z"/>
<path d="M8869 2359 c-134 -18 -187 -52 -140 -90 13 -11 38 -19 60 -19 68 0
111 -19 162 -73 44 -46 50 -50 73 -39 37 16 81 116 77 174 -3 41 -113 63 -232
47z"/>
<path d="M1471 2204 c-27 -35 -27 -97 0 -166 32 -84 45 -90 58 -29 6 29 11 81
11 117 0 101 -27 131 -69 78z"/>
<path d="M2580 2193 c-33 -12 -77 -65 -173 -207 -160 -240 -173 -282 -138
-453 25 -120 48 -178 87 -216 50 -51 95 -18 115 86 16 80 4 93 -102 102 l-80
7 58 28 c99 47 105 61 88 206 -5 45 -4 73 2 77 6 4 41 -9 79 -29 75 -38 122
-41 169 -10 47 31 60 62 49 117 -7 30 -7 49 -1 49 19 0 166 -141 365 -350 269
-281 416 -450 448 -514 14 -28 65 -105 113 -171 165 -226 221 -320 221 -373 0
-24 5 -30 29 -35 32 -7 48 -29 121 -166 25 -46 54 -90 66 -98 18 -12 24 -11
49 9 37 29 58 80 46 112 -12 31 -48 56 -81 56 -14 0 -31 5 -38 12 -30 30 -1
108 49 134 29 15 33 14 84 -10 65 -32 167 -134 217 -217 42 -70 45 -86 22
-131 -16 -31 -16 -32 7 -51 18 -15 34 -18 68 -14 64 7 89 -6 112 -58 32 -73
50 -79 222 -83 163 -4 224 1 253 23 18 13 18 14 0 34 -10 11 -48 38 -85 60
-76 45 -200 147 -414 341 -166 149 -212 192 -738 691 -869 824 -1100 1017
-1244 1042 -16 3 -37 3 -45 0z"/>
<path d="M331 2146 c-16 -17 -25 -41 -29 -75 -4 -46 -2 -53 26 -81 37 -36 55
-38 87 -5 33 33 34 98 2 146 -28 43 -56 47 -86 15z"/>
<path d="M2037 2074 c-23 -23 4 -233 35 -271 16 -19 36 -16 43 8 6 18 -11 135
-34 234 -6 29 -29 43 -44 29z"/>
<path d="M7960 2056 c-58 -20 -118 -67 -269 -208 -79 -73 -161 -148 -182 -166
-25 -22 -39 -42 -39 -57 0 -56 301 -1439 322 -1480 19 -36 41 -55 64 -55 13 0
65 13 116 30 202 65 363 241 797 870 89 129 183 255 209 279 l47 44 88 -7
c109 -8 143 5 246 95 126 111 175 150 213 170 22 11 40 29 44 43 7 30 -18 132
-47 188 -32 63 -115 144 -178 175 -49 24 -68 28 -146 28 -78 0 -97 -4 -146
-28 -76 -37 -145 -98 -136 -120 8 -21 53 -22 127 -2 30 8 61 15 68 15 8 0 -25
-43 -73 -95 -91 -102 -130 -165 -107 -173 31 -10 65 -49 59 -67 -6 -14 -14
-16 -40 -10 -60 13 -62 12 -59 -20 2 -16 4 -38 5 -49 3 -27 -26 -42 -59 -31
-70 25 -94 116 -94 352 0 95 -3 173 -7 173 -5 0 -181 27 -393 60 -211 33 -386
60 -390 60 -3 -1 -21 -7 -40 -14z m271 -296 c10 -6 19 -18 19 -26 0 -13 8 -14
40 -9 36 6 40 5 40 -14 0 -29 30 -41 106 -41 82 0 137 -16 169 -48 34 -34 31
-53 -15 -107 -22 -25 -40 -52 -40 -59 0 -8 25 -35 55 -61 30 -25 55 -53 55
-60 0 -7 -29 -42 -64 -77 -53 -54 -67 -75 -81 -124 -23 -77 -45 -120 -91 -175
-20 -24 -51 -76 -69 -114 -22 -50 -40 -74 -59 -83 -45 -20 -86 14 -86 73 0 43
-18 66 -48 63 l-27 -3 -6 90 c-6 94 -30 167 -64 195 -12 10 -36 14 -72 13 -29
-1 -53 0 -53 3 0 3 11 20 25 38 32 42 32 53 -3 48 -34 -5 -72 34 -108 113 -30
64 -32 105 -4 105 27 0 25 14 -5 34 -43 28 -31 39 33 33 77 -8 92 -15 92 -41
0 -13 12 -33 26 -47 22 -20 25 -30 20 -61 -7 -45 4 -48 34 -11 20 25 21 34 14
139 -6 103 -5 116 15 157 12 24 31 49 44 55 29 14 83 15 108 2z"/>
<path d="M10586 1928 c-3 -13 -10 -52 -15 -88 -14 -82 -32 -101 -103 -107
-145 -11 -256 -23 -271 -29 -20 -7 -22 -29 -4 -41 6 -4 78 -10 159 -13 84 -3
152 -10 158 -16 21 -21 -17 -35 -128 -50 -61 -8 -141 -24 -178 -36 -44 -14
-95 -22 -141 -23 -62 0 -76 3 -95 22 l-22 23 37 38 c23 23 37 47 37 63 0 28
-81 202 -99 213 -8 5 -11 -26 -11 -102 0 -205 -59 -309 -182 -319 -102 -8
-124 -20 -70 -42 44 -17 112 -30 258 -47 152 -17 209 -32 209 -53 0 -38 -124
-72 -330 -91 -66 -6 -153 -15 -194 -20 -115 -13 -133 -51 -44 -95 82 -41 105
-79 105 -171 -1 -72 -14 -103 -72 -165 -22 -24 -43 -55 -46 -69 -15 -67 -47
-147 -160 -404 -68 -154 -122 -281 -121 -283 14 -14 143 -23 316 -23 l206 0
84 193 c105 237 155 364 227 571 31 88 68 184 81 211 77 152 184 260 327 330
110 54 194 115 252 184 62 74 78 115 82 209 5 103 -9 132 -66 132 -44 0 -79
22 -128 78 -40 48 -52 51 -58 20z"/>
<path d="M532 1867 c-34 -36 -77 -141 -141 -346 -94 -298 -103 -362 -58 -400
31 -25 60 -9 79 43 39 112 148 167 222 113 17 -13 12 -14 -45 -13 -62 1 -64 0
-64 -24 0 -42 54 -62 145 -55 72 6 76 6 100 -20 21 -22 30 -25 61 -20 36 6 36
6 43 -36 5 -28 17 -52 40 -75 45 -45 96 -47 154 -5 78 57 70 79 -96 259 -179
193 -233 273 -313 455 -43 99 -75 147 -98 147 -4 0 -17 -10 -29 -23z"/>
<path d="M64 1259 c-15 -17 -19 -35 -18 -98 1 -94 24 -160 137 -396 70 -146
81 -178 83 -227 1 -36 8 -67 19 -85 106 -164 424 -400 595 -443 25 -6 95 -10
155 -8 l110 3 -123 62 c-190 96 -314 194 -445 351 -134 160 -226 327 -287 517
-27 83 -40 107 -73 139 -35 33 -42 47 -48 94 -13 93 -63 137 -105 91z"/>
<path d="M1205 1066 c-17 -12 -18 -17 -6 -42 7 -16 30 -51 51 -79 53 -70 94
-157 141 -297 52 -156 75 -205 110 -230 23 -17 26 -24 18 -40 -14 -26 -4 -48
20 -48 24 0 30 -8 44 -68 10 -40 16 -47 37 -47 21 0 26 5 28 32 2 17 -4 65
-12 107 -9 41 -16 101 -16 133 0 32 -7 83 -15 113 -29 105 -30 117 -5 130 38
21 107 7 144 -29 35 -34 46 -38 46 -16 0 30 40 37 171 33 141 -4 160 -11 141
-52 -14 -32 -5 -39 73 -54 33 -7 71 -15 85 -19 l25 -6 -23 25 c-29 32 -21 52
30 73 52 20 180 37 229 29 48 -8 50 -27 9 -79 -16 -20 -28 -41 -25 -45 2 -4
34 0 69 8 60 14 66 14 91 -2 23 -15 26 -23 22 -52 -3 -19 -14 -45 -24 -58 -10
-13 -31 -40 -46 -59 -32 -41 -29 -57 12 -57 39 0 65 22 58 49 -12 47 77 50
113 3 27 -34 25 -51 -11 -105 -17 -26 -28 -51 -24 -57 7 -12 104 -13 124 -1 9
6 11 18 6 41 -6 29 -5 32 11 26 19 -8 117 -32 167 -41 24 -5 34 -17 58 -70 32
-71 70 -105 98 -88 33 21 23 49 -46 136 -37 46 -138 160 -224 253 -86 93 -198
217 -249 277 -58 68 -102 110 -118 114 -15 3 -53 -1 -87 -10 -232 -65 -251
-69 -386 -74 -241 -10 -454 43 -737 182 -85 41 -155 75 -156 75 -1 0 -11 -6
-21 -14z"/>
<path d="M9375 1001 c-50 -31 -122 -114 -340 -396 -254 -328 -373 -474 -422
-513 -26 -20 -34 -34 -30 -46 11 -27 71 -46 149 -46 100 0 134 18 171 92 16
32 54 85 84 119 62 70 73 94 71 151 -1 42 5 52 75 100 15 10 29 34 36 62 9 38
16 46 46 56 44 15 91 78 151 204 46 99 72 190 61 219 -8 21 -15 21 -52 -2z"/>
</g>
</svg>
